<svg width="996" height="837" viewBox="0 0 996 837" fill="none" xmlns="http://www.w3.org/2000/svg">
<style type="text/css">
.light {
    filter: drop-shadow(0 0 30px rgb(30, 249, 159));
}
<style>
<path d="M36.341 834.936L20.2153 664.323C19.9157 661.145 20.2747 657.94 21.2699 654.907C22.265 651.874 23.875 649.079 25.9992 646.697C28.1233 644.315 30.716 642.396 33.6152 641.061C36.5144 639.726 39.6579 639.003 42.8491 638.937L222.323 635.319C228.234 635.205 233.965 637.349 238.349 641.314C242.734 645.279 245.441 650.767 245.92 656.659L259.679 834.895L36.341 834.936Z" fill="#F5F5F5"/>
<path d="M151.216 489.871C153.679 484.643 151.051 477.956 146.221 474.805C141.392 471.654 134.994 471.613 129.545 473.525C124.715 475.297 120.489 478.408 117.362 482.494C114.236 486.581 112.339 491.473 111.892 496.599C107.669 497.736 103.942 500.243 101.298 503.727C93.7578 513.262 94.9136 528.314 103.307 537.12C111.7 545.926 126.064 547.976 136.948 542.541C147.831 537.106 154.835 524.971 154.697 512.808" fill="#333333"/>
<path d="M159.169 495.375C159.412 494.324 159.312 493.222 158.884 492.231C158.456 491.241 157.721 490.414 156.788 489.871C155.825 489.354 154.764 489.045 153.673 488.965C152.583 488.884 151.488 489.033 150.459 489.403C148.406 490.153 146.508 491.272 144.859 492.706C142.303 494.643 140.102 497.008 138.351 499.695C136.603 502.409 135.818 505.631 136.122 508.845C136.296 510.44 136.861 511.967 137.769 513.29C138.676 514.613 139.898 515.69 141.323 516.426C142.771 517.118 144.403 517.321 145.976 517.006C147.549 516.691 148.977 515.874 150.046 514.679" fill="#1EF99F"/>
<path d="M167.191 466.467C166.998 460.509 172.488 455.886 178.019 453.671C183.55 451.456 189.714 450.616 194.64 447.259C199.002 444.301 201.932 439.692 205.647 435.908C210.197 431.254 215.902 427.894 222.178 426.172C228.454 424.45 235.075 424.428 241.362 426.109C247.649 427.789 253.376 431.111 257.956 435.735C262.536 440.358 265.805 446.116 267.426 452.419C269.586 460.894 268.183 470.939 261.523 476.607C253.791 483.184 242.26 481.781 232.326 479.786C222.392 477.791 211.096 475.851 202.827 481.726C197.832 485.276 194.984 491.013 191.943 496.324C188.902 501.635 185.064 507.084 179.312 509.093C173.561 511.101 165.663 507.717 165.402 501.594" fill="#333333"/>
<path d="M167.59 469.783C168.277 474.777 164.686 479.263 161.095 482.813C157.504 486.362 153.473 490.105 152.84 495.113C152.124 500.947 156.417 506.671 155.206 512.436C154.436 516.082 151.615 518.917 149.909 522.233C147.641 527.025 147.286 532.502 148.918 537.546C150.418 542.569 152.84 553.796 156.348 557.676C166.062 568.449 181.5 577.696 195.644 580.888C209.789 584.08 224.47 584.011 238.944 583.062C250.791 582.277 264.413 582.759 274.209 566.413C279.286 557.951 281.763 546.71 284.446 537.216C286.744 529.03 288.725 520.265 286.262 512.133C284.817 507.4 281.942 503.204 280.524 498.457C278.75 492.527 279.355 486.184 278.626 480.033C277.832 473.353 275.455 466.959 271.693 461.383C267.931 455.806 262.893 451.208 256.996 447.97C251.099 444.732 244.515 442.949 237.791 442.768C231.066 442.587 224.396 444.013 218.333 446.929" fill="#333333"/>
<path d="M273.012 489.72C271.828 472.727 260.422 451.937 243.498 453.85L190.677 467.609C188.197 467.887 185.911 469.086 184.273 470.969C182.634 472.852 181.763 475.282 181.83 477.777L188.352 605.324L187.994 605.393C187.994 605.393 200.212 641.318 235.119 630.159C241.998 627.944 245.177 620.349 246.511 612.548H246.869C246.869 611.612 246.869 610.759 246.869 609.878C247.525 604.065 247.567 598.199 246.993 592.377C246.993 582.085 246.924 577.347 246.993 577.957C246.993 578.053 268.691 574.201 273.012 545.829C275.199 531.699 274.332 508.611 273.012 489.72Z" fill="white"/>
<path fill-rule="evenodd" clip-rule="evenodd" d="M271.639 489.815C271.063 481.551 267.993 472.357 263.042 465.501C258.111 458.673 251.492 454.373 243.748 455.206L190.928 468.965L190.83 468.976C188.693 469.216 186.723 470.25 185.311 471.873C183.902 473.491 183.151 475.579 183.205 477.724L189.773 606.184C189.8 606.248 189.827 606.314 189.856 606.383C190.245 607.311 190.841 608.633 191.664 610.188C193.314 613.304 195.86 617.327 199.45 620.999C203.037 624.667 207.642 627.961 213.421 629.678C219.186 631.391 226.211 631.562 234.697 628.85C240.763 626.896 243.828 620.074 245.155 612.316L245.351 611.172H245.493V609.801L245.502 609.724C246.147 604.007 246.188 598.237 245.624 592.512L245.617 592.444V592.377C245.617 587.918 245.604 584.503 245.595 582.113C245.594 581.745 245.592 581.402 245.591 581.084C245.587 579.889 245.585 579.024 245.588 578.497C245.59 578.243 245.593 578.036 245.599 577.908C245.6 577.89 245.601 577.866 245.604 577.838C245.605 577.817 245.607 577.794 245.61 577.771C245.613 577.747 245.619 577.691 245.634 577.623C245.641 577.591 245.656 577.526 245.683 577.449C245.699 577.405 245.77 577.197 245.953 576.992C246.053 576.879 246.249 576.696 246.558 576.596C246.757 576.532 246.957 576.516 247.147 576.539C247.266 576.514 247.417 576.479 247.598 576.434C248.151 576.294 248.966 576.056 249.966 575.68C251.967 574.927 254.694 573.626 257.554 571.47C263.244 567.179 269.548 559.437 271.651 545.622L271.652 545.619C273.812 531.663 272.961 508.724 271.639 489.815ZM248.33 577.616C248.33 577.617 248.33 577.618 248.33 577.618L248.331 577.62C248.334 577.634 248.337 577.648 248.339 577.661C247.771 577.818 247.362 577.904 247.153 577.939C247.097 577.948 247.055 577.954 247.028 577.957C247.005 577.959 246.993 577.959 246.993 577.957C246.985 577.888 246.979 577.887 246.975 577.957C246.974 577.958 246.974 577.958 246.974 577.959C246.965 578.105 246.962 578.545 246.962 579.281C246.962 579.298 246.962 579.316 246.962 579.334C246.963 580.014 246.967 580.938 246.971 582.107C246.98 584.498 246.993 587.915 246.993 592.377C247.567 598.199 247.525 604.065 246.869 609.878V612.548H246.511C245.177 620.349 241.998 627.944 235.119 630.159C204.235 640.032 191.111 613.048 188.497 606.697C188.156 605.87 187.994 605.393 187.994 605.393L188.352 605.324L181.83 477.777C181.763 475.282 182.634 472.852 184.273 470.969C185.911 469.086 188.197 467.887 190.677 467.609L243.498 453.85C260.422 451.937 271.828 472.727 273.012 489.72C274.332 508.611 275.199 531.699 273.012 545.829C269.343 569.922 253.142 576.334 248.339 577.661C248.336 577.646 248.333 577.631 248.33 577.616Z" fill="#333333"/>
<path d="M265.884 509.051C265.903 509.999 265.549 510.917 264.898 511.607C264.247 512.296 263.351 512.703 262.403 512.739C261.942 512.78 261.477 512.728 261.036 512.586C260.595 512.444 260.187 512.215 259.837 511.912C259.486 511.609 259.2 511.238 258.996 510.822C258.792 510.407 258.673 509.954 258.647 509.492C258.628 508.546 258.981 507.63 259.629 506.941C260.277 506.251 261.169 505.843 262.115 505.804C262.577 505.763 263.042 505.815 263.484 505.957C263.926 506.098 264.335 506.328 264.686 506.63C265.038 506.933 265.325 507.304 265.531 507.719C265.737 508.135 265.857 508.588 265.884 509.051Z" fill="#333333"/>
<path d="M268.086 501.786C267.646 502.254 264.866 500.232 260.959 500.273C257.051 500.314 254.189 502.282 253.763 501.814C253.556 501.607 254.01 500.741 255.249 499.819C256.941 498.641 258.952 498.007 261.014 498.003C263.045 497.986 265.029 498.612 266.683 499.791C267.893 500.713 268.306 501.566 268.086 501.786Z" fill="#333333"/>
<path d="M228.529 509.505C228.544 510.452 228.188 511.368 227.538 512.057C226.888 512.746 225.994 513.153 225.047 513.193C224.586 513.234 224.121 513.182 223.68 513.04C223.239 512.898 222.831 512.668 222.481 512.365C222.13 512.062 221.844 511.692 221.64 511.276C221.436 510.861 221.317 510.408 221.291 509.945C221.272 508.998 221.624 508.081 222.272 507.39C222.92 506.698 223.812 506.287 224.759 506.244C225.222 506.203 225.689 506.255 226.131 506.398C226.574 506.541 226.983 506.771 227.335 507.075C227.687 507.38 227.974 507.752 228.179 508.169C228.384 508.586 228.503 509.041 228.529 509.505Z" fill="#333333"/>
<path d="M229.643 502.805C229.189 503.272 226.423 501.264 222.515 501.291C218.608 501.319 215.746 503.314 215.319 502.832C215.113 502.626 215.567 501.759 216.805 500.837C218.492 499.658 220.499 499.024 222.557 499.021C224.595 498.997 226.587 499.629 228.239 500.823C229.45 501.704 229.863 502.557 229.643 502.805Z" fill="#333333"/>
<path d="M244.035 531.699C244.035 531.479 246.443 531.038 250.378 530.502C251.382 530.392 252.318 530.199 252.483 529.511C252.565 528.478 252.324 527.444 251.795 526.553L248.796 518.972C244.668 508.171 241.586 499.282 242.026 499.117C242.467 498.952 246.154 507.579 250.378 518.38C251.378 521.04 252.336 523.585 253.254 526.016C253.89 527.214 254.085 528.597 253.804 529.924C253.663 530.279 253.442 530.597 253.158 530.852C252.874 531.107 252.535 531.294 252.167 531.396C251.617 531.556 251.047 531.64 250.474 531.644C246.512 531.878 244.049 531.905 244.035 531.699Z" fill="#333333"/>
<path d="M232.546 534.451C233.179 534.451 233.22 538.661 236.866 541.647C240.512 544.632 245.039 544.137 245.122 544.729C245.122 545.004 244.117 545.568 242.205 545.623C239.708 545.687 237.27 544.863 235.325 543.298C233.467 541.794 232.264 539.629 231.968 537.257C231.858 535.496 232.257 534.451 232.546 534.451Z" fill="#333333"/>
<path d="M231.349 495.925C230.977 496.998 227.07 496.517 222.488 497.095C217.906 497.672 214.233 498.966 213.572 498.016C213.297 497.549 213.944 496.544 215.43 495.512C217.419 494.241 219.671 493.437 222.016 493.16C224.361 492.884 226.738 493.142 228.969 493.916C230.661 494.549 231.514 495.402 231.349 495.925Z" fill="#333333"/>
<path d="M266.573 490.421C265.885 491.316 263.188 490.421 259.954 490.421C256.721 490.421 253.969 491.068 253.336 490.132C253.047 489.692 253.474 488.756 254.712 487.945C256.308 486.904 258.188 486.384 260.092 486.459C261.992 486.475 263.84 487.086 265.375 488.206C266.49 489.128 266.875 490.036 266.573 490.421Z" fill="#333333"/>
<path d="M171.318 560.923C175.238 561.696 179.285 561.524 183.125 560.422C186.965 559.32 190.488 557.319 193.402 554.586C196.315 551.852 198.536 548.464 199.881 544.702C201.225 540.94 201.655 536.912 201.134 532.951C200.212 526.071 196.428 518.93 198.809 512.312C201.959 503.589 214.164 500.851 217.37 492.141C219.227 487.092 217.507 481.134 219.612 476.222C221.607 471.558 226.492 468.847 231.253 467.113C236.013 465.38 241.118 464.141 245.108 461.018C249.098 457.895 251.561 452.006 248.961 447.658C227.786 450.288 207.001 455.433 187.045 462.986C182.421 464.733 177.578 466.838 174.854 470.952C171.978 475.328 172.102 480.941 172.419 486.087C173.721 511.542 175.024 536.987 176.326 562.423" fill="#333333"/>
<path d="M103.898 518.009C103.65 518.106 103.418 518.241 103.21 518.408C102.603 518.867 102.049 519.393 101.559 519.976C99.7648 522.19 98.7408 524.929 98.6422 527.778C98.6294 531.984 99.8491 536.103 102.151 539.624C104.788 544.038 108.599 547.634 113.158 550.012C117.776 552.364 123.069 553.035 128.128 551.911C130.316 551.4 132.397 550.511 134.278 549.283C135.893 548.185 137.323 546.838 138.516 545.293C140.255 543.066 141.401 540.433 141.846 537.643C141.962 536.892 142.008 536.132 141.983 535.373C141.992 535.109 141.964 534.845 141.901 534.588C141.805 534.588 141.901 535.675 141.488 537.588C140.915 540.262 139.722 542.764 138.007 544.894C135.463 548.053 131.905 550.236 127.935 551.072C123.077 552.111 118.009 551.446 113.585 549.187C109.181 546.875 105.487 543.414 102.894 539.17C100.636 535.798 99.3939 531.849 99.3164 527.791C99.3526 525.063 100.237 522.413 101.848 520.21C102.487 519.436 103.171 518.701 103.898 518.009Z" fill="#333333"/>
<path d="M261.509 609.149L244.86 596.532L182.16 592.528L179.628 600.935L200.033 728.207L186.425 834.909H273.892L261.509 609.149Z" fill="#1EF99F"/>
<path d="M247.943 611.708L249.883 593.505C249.965 592.744 249.894 591.974 249.675 591.241C249.456 590.508 249.093 589.825 248.608 589.234C248.123 588.642 247.524 588.153 246.848 587.795C246.171 587.437 245.43 587.217 244.668 587.148L186.88 581.933C186.511 581.903 186.139 581.948 185.788 582.065C185.436 582.183 185.112 582.369 184.834 582.615C184.557 582.86 184.332 583.159 184.173 583.494C184.013 583.828 183.923 584.191 183.908 584.561L183.261 606.218L199.979 634.576L217.164 640.079H238.174L250.254 627.173L247.943 611.708Z" fill="#1EF99F"/>
<path fill-rule="evenodd" clip-rule="evenodd" d="M262.596 697.125L264.729 835.322L293.417 835.046L290.296 825.124L290.307 825.14L309.308 832.446C313.677 834.123 318.499 834.196 322.916 832.652L341.202 826.282L342.743 791.457L327.305 786.986L319.325 772.786C319.325 772.786 311.551 673.019 307.492 654.306C302.319 630.503 282.643 617.322 282.643 617.322L282.643 617.335L249.277 599.875L258.675 608.076L262.596 697.125Z" fill="#3C004F"/>
<path d="M291.614 768.906C291.614 768.906 291.738 768.535 291.931 767.819L292.715 764.668C293.059 763.293 293.458 761.628 293.843 759.66C294.228 757.693 294.737 755.532 295.136 752.987C295.535 750.441 296.031 747.786 296.416 744.842C296.801 741.897 297.159 738.76 297.517 735.458C298.122 728.812 298.521 721.492 298.521 713.801C298.521 706.11 298.053 698.776 297.434 692.144C297.063 688.828 296.746 685.677 296.292 682.76C295.838 679.843 295.439 677.092 294.916 674.615C294.393 672.138 294.008 669.909 293.609 667.942C293.21 665.974 292.811 664.309 292.453 662.947C292.096 661.585 291.862 660.581 291.655 659.796C291.581 659.43 291.475 659.071 291.339 658.723C291.367 659.099 291.427 659.472 291.518 659.838C291.683 660.622 291.903 661.681 292.192 663.002C292.481 664.323 292.852 666.057 293.21 668.024C293.568 669.992 294.049 672.221 294.421 674.697C294.792 677.174 295.274 679.898 295.632 682.829C295.989 685.76 296.361 688.911 296.705 692.213C297.297 698.831 297.696 706.123 297.737 713.801C297.778 721.479 297.352 728.771 296.787 735.389C296.457 738.691 296.168 741.842 295.756 744.773C295.343 747.703 294.971 750.428 294.559 752.904C294.146 755.381 293.733 757.624 293.375 759.591C293.017 761.559 292.674 763.237 292.371 764.613C292.068 765.989 291.889 766.994 291.724 767.792C291.646 768.158 291.609 768.532 291.614 768.906Z" fill="white"/>
<path fill-rule="evenodd" clip-rule="evenodd" d="M181.445 610.319L193.512 673.294C199.528 704.697 201.612 736.727 199.717 768.645L199.736 781.67C205.528 782.729 210.728 785.915 214.303 790.619C218.042 795.538 219.706 801.727 218.938 807.858C218.227 813.475 215.521 818.65 211.313 822.438C208.055 825.371 204.066 827.322 199.803 828.11L199.813 834.895L148.753 834.702L148.221 829.255C124.413 829.469 102.337 829.333 97.3215 828.222C82.3103 824.906 70.8077 806.909 71.1792 780.602C71.3709 766.908 79.6551 734.152 88.3956 699.591C92.8285 682.064 97.3787 664.072 101.05 647.867C102.705 640.538 106.136 633.727 111.04 628.034C115.943 622.341 122.171 617.94 129.174 615.217L134.815 613.084L134.841 613.288L134.843 613.098L158.935 603.246L183.811 589.529L183.949 592.803C180.996 598.138 180.105 604.371 181.445 610.319ZM142.755 773.271L139.833 743.351L134.691 772.085L142.755 773.271Z" fill="#3C004F"/>
<path d="M123.161 625.619C123.796 625.915 124.454 626.159 125.129 626.348C126.914 626.997 128.66 627.75 130.357 628.604C135.935 631.476 140.772 635.602 144.488 640.657C145.54 642.08 146.461 643.595 147.24 645.184C147.934 646.687 148.496 648.248 148.918 649.848C149.627 652.553 150.088 655.316 150.294 658.104C150.501 660.498 150.542 662.452 150.556 663.8C150.569 665.149 150.556 665.905 150.556 665.905C150.721 665.221 150.799 664.518 150.789 663.814C150.892 661.898 150.892 659.978 150.789 658.063C150.64 655.212 150.216 652.383 149.524 649.615C149.104 647.973 148.542 646.371 147.845 644.826C147.041 643.195 146.092 641.638 145.011 640.176C141.231 635.03 136.253 630.883 130.509 628.095C128.778 627.266 126.983 626.575 125.142 626.031C124.496 625.834 123.833 625.696 123.161 625.619Z" fill="white"/>
<path d="M292.137 722.208C292.137 722.4 291.477 722.497 290.761 722.428C290.046 722.359 289.385 722.125 289.385 721.919C289.385 721.713 290.032 721.63 290.761 721.713C291.49 721.795 292.165 722.015 292.137 722.208Z" fill="#FAFAFA"/>
<path d="M296.223 722.813C296.223 723.006 295.866 723.116 295.494 723.047C295.123 722.978 294.834 722.786 294.861 722.593C294.889 722.4 295.233 722.29 295.604 722.345C295.976 722.4 296.265 722.621 296.223 722.813Z" fill="#FAFAFA"/>
<path d="M298.907 742.448C298.907 742.64 298.521 742.709 298.15 742.599C297.778 742.489 297.517 742.269 297.586 742.076C297.655 741.883 297.985 741.815 298.342 741.911C298.7 742.007 298.962 742.214 298.907 742.448Z" fill="#FAFAFA"/>
<path d="M304.782 743.314C304.782 743.521 304.094 743.617 303.268 743.534C302.443 743.452 301.796 743.232 301.824 743.025C301.851 742.819 302.539 742.736 303.337 742.819C304.135 742.902 304.782 743.122 304.782 743.314Z" fill="#FAFAFA"/>
<path d="M310.726 742.998C310.726 743.19 310.106 743.424 309.35 743.507C308.593 743.589 307.836 743.507 307.822 743.3C307.809 743.094 308.469 742.874 309.267 742.791C310.065 742.709 310.684 742.805 310.726 742.998Z" fill="#FAFAFA"/>
<path d="M314.949 742.007C314.949 742.186 314.757 742.434 314.385 742.544C314.014 742.654 313.67 742.544 313.629 742.379C313.587 742.213 313.835 741.952 314.193 741.856C314.55 741.759 314.894 741.814 314.949 742.007Z" fill="#FAFAFA"/>
<path d="M264.702 723.474C264.702 723.666 264.481 723.9 264.11 723.983C263.738 724.065 263.408 723.983 263.353 723.776C263.298 723.57 263.573 723.363 263.945 723.281C264.316 723.198 264.66 723.281 264.702 723.474Z" fill="white"/>
<path d="M270.122 722.497C270.122 722.689 269.572 722.951 268.829 723.075C268.086 723.198 267.453 723.075 267.453 722.937C267.453 722.799 267.99 722.483 268.746 722.359C269.503 722.235 270.095 722.29 270.122 722.497Z" fill="white"/>
<path d="M275.613 721.878C275.613 722.07 275.021 722.29 274.237 722.359C273.452 722.428 272.861 722.359 272.861 722.139C272.861 721.919 273.439 721.726 274.237 721.644C275.035 721.561 275.599 721.671 275.613 721.878Z" fill="white"/>
<path d="M281.116 721.575C281.116 721.767 280.511 721.946 279.74 721.974C278.97 722.001 278.364 721.85 278.364 721.657C278.364 721.465 278.97 721.286 279.74 721.258C280.511 721.231 281.116 721.424 281.116 721.575Z" fill="white"/>
<path d="M286.634 721.726C286.634 721.933 286.001 722.07 285.258 722.043C284.515 722.015 283.882 721.822 283.882 721.63C283.882 721.437 284.501 721.286 285.258 721.327C286.015 721.368 286.647 721.575 286.634 721.726Z" fill="white"/>
<path d="M261.193 662.067C261.193 662.273 260.932 662.466 260.56 662.521C260.189 662.576 259.858 662.452 259.831 662.259C259.803 662.067 260.092 661.86 260.464 661.805C260.835 661.75 261.166 661.874 261.193 662.067Z" fill="white"/>
<path d="M266.463 661.599C266.463 661.791 265.899 661.998 265.169 662.053C264.44 662.108 263.793 661.984 263.793 661.791C263.793 661.599 264.358 661.392 265.087 661.337C265.816 661.282 266.449 661.392 266.463 661.599Z" fill="white"/>
<path d="M271.76 661.489C271.76 661.681 271.155 661.846 270.384 661.846C269.614 661.846 269.008 661.695 269.008 661.489C269.008 661.282 269.6 661.131 270.384 661.131C271.168 661.131 271.76 661.282 271.76 661.489Z" fill="white"/>
<path d="M277.043 661.736C277.043 661.943 276.424 662.067 275.667 662.012C274.911 661.957 274.292 661.764 274.374 661.571C274.457 661.379 274.98 661.255 275.75 661.296C276.521 661.337 277.057 661.544 277.043 661.736Z" fill="white"/>
<path d="M282.299 662.411C282.299 662.603 281.653 662.686 280.923 662.576C280.194 662.466 279.644 662.245 279.657 662.053C279.671 661.86 280.29 661.778 281.033 661.874C281.776 661.97 282.327 662.163 282.299 662.411Z" fill="white"/>
<path d="M287.5 663.346C287.5 663.539 286.84 663.58 286.124 663.429C285.409 663.277 284.872 663.002 284.9 662.81C284.927 662.617 285.547 662.576 286.276 662.727C287.005 662.878 287.542 663.154 287.5 663.346Z" fill="white"/>
<path d="M291.394 664.337C291.394 664.529 290.995 664.598 290.637 664.502C290.28 664.406 290.018 664.172 290.059 663.979C290.101 663.786 290.458 663.704 290.816 663.814C291.174 663.924 291.449 664.144 291.394 664.337Z" fill="white"/>
<path d="M261.179 614.818C261.179 615.024 260.849 615.162 260.477 615.148C260.106 615.134 259.803 614.942 259.803 614.749C259.803 614.556 260.133 614.405 260.519 614.433C260.904 614.46 261.193 614.625 261.179 614.818Z" fill="white"/>
<path d="M267.109 615.313C267.109 615.519 266.408 615.616 265.596 615.533C264.784 615.451 264.137 615.231 264.151 615.038C264.165 614.845 264.839 614.735 265.665 614.818C266.49 614.9 267.137 615.12 267.109 615.313Z" fill="white"/>
<path d="M272.998 616.125C272.998 616.317 272.283 616.386 271.485 616.262C270.687 616.139 270.04 615.877 270.109 615.685C270.178 615.492 270.811 615.423 271.623 615.547C272.434 615.671 273.04 615.932 272.998 616.125Z" fill="white"/>
<path d="M278.846 617.239C278.846 617.432 278.117 617.46 277.319 617.239C276.521 617.019 275.943 616.785 275.943 616.593C275.943 616.4 276.672 616.373 277.47 616.593C278.268 616.813 278.887 617.005 278.846 617.239Z" fill="white"/>
<path d="M283.084 618.244C283.084 618.436 282.698 618.519 282.327 618.423C281.955 618.326 281.694 618.106 281.749 617.914C281.804 617.721 282.134 617.638 282.506 617.721C282.877 617.804 283.125 618.051 283.084 618.244Z" fill="white"/>
<path d="M188.833 652.023C188.833 652.215 188.503 652.367 188.132 652.353C187.76 652.339 187.444 652.16 187.457 651.967C187.471 651.775 187.774 651.61 188.159 651.637C188.544 651.665 188.833 651.816 188.833 652.023Z" fill="#FAFAFA"/>
<path d="M142.314 731.344C142.314 731.537 141.956 731.661 141.585 731.605C141.213 731.55 140.924 731.358 140.952 731.165C140.98 730.973 141.31 730.849 141.681 730.904C142.053 730.959 142.342 731.206 142.314 731.344Z" fill="white"/>
<path d="M147.653 731.963C147.653 732.156 147.02 732.252 146.277 732.17C145.534 732.087 144.901 731.867 144.983 731.674C145.066 731.482 145.616 731.385 146.359 731.454C147.102 731.523 147.666 731.757 147.653 731.963Z" fill="white"/>
<path d="M153.005 732.417C153.005 732.624 152.372 732.734 151.629 732.679C150.886 732.624 150.253 732.404 150.322 732.211C150.391 732.018 150.955 731.894 151.698 731.963C152.441 732.032 153.019 732.225 153.005 732.417Z" fill="white"/>
<path d="M158.357 732.734C158.357 732.94 157.752 733.064 156.981 733.023C156.211 732.981 155.605 732.802 155.605 732.596C155.605 732.39 156.238 732.266 156.981 732.307C157.724 732.348 158.371 732.582 158.357 732.734Z" fill="white"/>
<path d="M163.737 732.899C163.737 733.105 163.118 733.243 162.361 733.229C161.605 733.215 160.985 733.037 160.985 732.844C160.985 732.651 161.605 732.5 162.361 732.514C163.118 732.527 163.737 732.706 163.737 732.899Z" fill="white"/>
<path d="M169.103 732.926C169.103 733.119 168.497 733.284 167.727 733.284C166.956 733.284 166.351 733.133 166.351 732.926C166.351 732.72 166.943 732.568 167.727 732.568C168.511 732.568 169.103 732.72 169.103 732.926Z" fill="white"/>
<path d="M174.469 732.789C174.469 732.981 173.877 733.174 173.093 733.188C172.309 733.201 171.717 733.078 171.717 732.871C171.717 732.665 172.309 732.5 173.093 732.472C173.877 732.445 174.469 732.582 174.469 732.789Z" fill="white"/>
<path d="M179.835 732.582C179.835 732.775 179.257 732.967 178.459 733.023C177.661 733.078 177.083 732.94 177.083 732.734C177.083 732.527 177.661 732.348 178.459 732.307C179.257 732.266 179.821 732.321 179.835 732.582Z" fill="white"/>
<path d="M185.187 732.087C185.187 732.28 184.623 732.5 183.811 732.555C183 732.61 182.436 732.555 182.436 732.321C182.436 732.087 183 731.908 183.811 731.839C184.623 731.77 185.174 731.894 185.187 732.087Z" fill="white"/>
<path d="M190.581 731.509C190.581 731.702 190.031 731.936 189.288 732.018C188.545 732.101 187.912 732.018 187.912 731.812C187.912 731.605 188.476 731.385 189.205 731.303C189.934 731.22 190.498 731.316 190.581 731.509Z" fill="white"/>
<path d="M195.851 730.78C195.851 730.986 195.3 731.22 194.571 731.33C193.842 731.44 193.195 731.33 193.195 731.165C193.195 731 193.732 730.725 194.475 730.628C195.218 730.532 195.823 730.587 195.851 730.78Z" fill="white"/>
<path d="M199.854 730.147C199.854 730.34 199.607 730.546 199.235 730.615C198.864 730.684 198.533 730.615 198.492 730.367C198.451 730.119 198.74 729.968 199.111 729.899C199.483 729.83 199.827 729.941 199.854 730.147Z" fill="white"/>
<path d="M91.1712 695.845C91.1712 696.038 90.8134 696.148 90.4419 696.093C90.0705 696.038 89.7815 695.832 89.8228 695.639C89.8641 695.446 90.1668 695.323 90.552 695.391C90.9373 695.46 91.2125 695.653 91.1712 695.845Z" fill="white"/>
<path d="M96.4548 696.809C96.4548 697.001 95.7943 697.042 95.0789 696.919C94.3634 696.795 93.7855 696.506 93.8268 696.313C93.8681 696.121 94.4735 696.066 95.2027 696.203C95.9319 696.341 96.4961 696.588 96.4548 696.809Z" fill="white"/>
<path d="M101.697 697.923C101.697 698.116 101.023 698.129 100.321 697.923C99.6192 697.717 99.0551 697.469 99.0964 697.276C99.1376 697.084 99.7568 697.07 100.472 697.276C101.188 697.483 101.738 697.73 101.697 697.923Z" fill="white"/>
<path d="M106.884 699.258C106.884 699.45 106.21 699.45 105.508 699.258C104.806 699.065 104.256 698.762 104.311 698.57C104.366 698.377 104.985 698.377 105.687 698.57C106.389 698.762 106.939 699.065 106.884 699.258Z" fill="white"/>
<path d="M112.016 700.799C112.016 700.991 111.342 700.964 110.64 700.799C109.939 700.634 109.402 700.248 109.457 700.056C109.512 699.863 110.145 699.891 110.833 700.056C111.521 700.221 112.154 700.606 112.016 700.799Z" fill="white"/>
<path d="M117.093 702.532C117.093 702.725 116.405 702.67 115.717 702.422C115.029 702.175 114.507 701.831 114.562 701.638C114.617 701.445 115.25 701.5 115.938 701.748C116.625 701.996 117.162 702.312 117.093 702.532Z" fill="white"/>
<path d="M122.102 704.459C122.019 704.651 121.4 704.569 120.726 704.307C120.051 704.046 119.529 703.661 119.611 703.468C119.694 703.275 120.299 703.358 120.987 703.633C121.675 703.908 122.17 704.28 122.102 704.459Z" fill="white"/>
<path d="M127.028 706.577C126.945 706.756 126.326 706.66 125.652 706.371C124.977 706.082 124.496 705.683 124.565 705.504C124.633 705.325 125.266 705.408 125.941 705.711C126.615 706.013 127.11 706.44 127.028 706.577Z" fill="white"/>
<path d="M131.857 708.889C131.774 709.068 131.169 708.889 130.481 708.628C129.793 708.366 129.353 707.885 129.435 707.706C129.518 707.527 130.137 707.706 130.811 707.981C131.485 708.256 131.953 708.71 131.857 708.889Z" fill="white"/>
<path d="M136.617 711.38C136.521 711.558 135.916 711.38 135.242 711.063C134.567 710.747 134.141 710.279 134.237 710.114C134.333 709.949 134.925 710.114 135.613 710.43C136.301 710.747 136.7 711.201 136.617 711.38Z" fill="white"/>
<path d="M141.254 714.049C141.158 714.214 140.553 714.049 139.878 713.677C139.204 713.306 138.805 712.866 138.901 712.687C138.998 712.508 139.603 712.687 140.277 713.058C140.952 713.43 141.364 713.884 141.254 714.049Z" fill="white"/>
<path d="M144.708 716.195C144.598 716.36 144.254 716.333 143.924 716.195C143.593 716.058 143.442 715.686 143.538 715.521C143.635 715.356 143.992 715.383 144.309 715.59C144.625 715.796 144.804 716.071 144.708 716.195Z" fill="white"/>
<path d="M151.78 655.875C151.78 656.068 151.574 656.302 151.216 656.398C150.858 656.494 150.501 656.398 150.459 656.219C150.418 656.04 150.652 655.793 151.023 655.696C151.395 655.6 151.739 655.683 151.78 655.875Z" fill="white"/>
<path d="M157.173 654.609C157.173 654.802 156.651 655.091 155.908 655.256C155.165 655.421 154.532 655.407 154.532 655.256C154.532 655.105 155.055 654.774 155.798 654.596C156.541 654.417 157.132 654.417 157.173 654.609Z" fill="white"/>
<path d="M162.622 653.591C162.622 653.784 162.072 654.045 161.247 654.183C160.421 654.32 159.871 654.265 159.871 654.073C159.871 653.88 160.407 653.605 161.164 653.467C161.921 653.33 162.581 653.385 162.622 653.591Z" fill="white"/>
<path d="M168.099 652.779C168.099 652.972 167.534 653.206 166.723 653.302C165.911 653.399 165.347 653.302 165.347 653.137C165.347 652.972 165.911 652.697 166.723 652.601C167.534 652.504 168.071 652.601 168.099 652.779Z" fill="white"/>
<path d="M173.616 652.256C173.616 652.449 173.024 652.669 172.24 652.738C171.456 652.807 170.864 652.738 170.864 652.504C170.864 652.27 171.456 652.091 172.24 652.023C173.024 651.954 173.602 652.064 173.616 652.256Z" fill="white"/>
<path d="M179.147 651.954C179.147 652.16 178.541 652.339 177.771 652.38C177 652.422 176.395 652.27 176.395 652.078C176.395 651.885 176.987 651.692 177.771 651.665C178.555 651.637 179.133 651.761 179.147 651.954Z" fill="white"/>
<path d="M184.678 651.899C184.678 652.091 184.059 652.257 183.302 652.257C182.545 652.257 181.926 652.091 181.926 651.899C181.926 651.706 182.545 651.541 183.302 651.541C184.059 651.541 184.678 651.706 184.678 651.899Z" fill="white"/>
<path d="M108.026 634.383C108.026 634.576 107.792 634.796 107.421 634.865C107.049 634.934 106.705 634.865 106.678 634.645C106.65 634.425 106.898 634.232 107.283 634.163C107.669 634.094 108.026 634.191 108.026 634.383Z" fill="white"/>
<path d="M113.2 633.654C113.2 633.847 112.649 634.081 111.948 634.163C111.246 634.246 110.641 634.163 110.572 633.957C110.503 633.75 111.108 633.53 111.824 633.448C112.539 633.365 113.172 633.517 113.2 633.654Z" fill="white"/>
<path d="M118.387 633.351C118.387 633.544 117.809 633.723 117.093 633.75C116.378 633.778 115.8 633.64 115.718 633.448C115.635 633.255 116.282 633.063 116.997 633.035C117.713 633.007 118.373 633.145 118.387 633.351Z" fill="white"/>
<path d="M123.574 633.517C123.574 633.709 122.968 633.847 122.198 633.819C121.427 633.792 120.904 633.599 120.918 633.393C120.932 633.186 121.51 633.063 122.294 633.104C123.078 633.145 123.588 633.283 123.574 633.517Z" fill="white"/>
<path d="M128.747 634.025C128.747 634.218 128.114 634.301 127.371 634.218C126.628 634.136 126.106 633.888 126.119 633.695C126.133 633.503 126.739 633.406 127.495 633.503C128.252 633.599 128.775 633.833 128.747 634.025Z" fill="white"/>
<path d="M133.852 634.989C133.852 635.181 133.205 635.223 132.476 635.071C131.747 634.92 131.238 634.645 131.279 634.452C131.32 634.259 131.926 634.218 132.655 634.37C133.384 634.521 133.893 634.796 133.852 634.989Z" fill="white"/>
<path d="M138.86 636.379C138.86 636.571 138.2 636.557 137.484 636.379C136.769 636.2 136.287 635.856 136.342 635.663C136.397 635.47 137.003 635.484 137.718 635.663C138.434 635.842 138.915 636.186 138.86 636.379Z" fill="white"/>
<path d="M142.603 637.713C142.52 637.906 142.176 637.947 141.832 637.809C141.488 637.672 141.241 637.41 141.309 637.232C141.378 637.053 141.722 636.998 142.08 637.135C142.438 637.273 142.672 637.534 142.603 637.713Z" fill="white"/>
<path d="M154.504 607.209C154.504 607.402 154.215 607.581 153.83 607.594C153.445 607.608 153.142 607.471 153.128 607.264C153.115 607.058 153.417 606.893 153.803 606.879C154.188 606.865 154.491 607.003 154.504 607.209Z" fill="white"/>
<path d="M159.43 606.975C159.43 607.168 158.907 607.36 158.219 607.388C157.531 607.415 156.981 607.292 156.967 607.085C156.953 606.879 157.504 606.7 158.192 606.672C158.88 606.645 159.43 606.769 159.43 606.975Z" fill="white"/>
<path d="M164.438 606.741C164.438 606.934 163.902 607.113 163.228 607.154C162.553 607.195 161.976 607.044 161.976 606.851C161.976 606.659 162.512 606.466 163.186 606.439C163.861 606.411 164.356 606.535 164.438 606.741Z" fill="white"/>
<path d="M169.295 606.494C169.295 606.7 168.772 606.879 168.084 606.92C167.396 606.962 166.846 606.81 166.832 606.618C166.819 606.425 167.369 606.232 168.057 606.205C168.745 606.177 169.295 606.301 169.295 606.494Z" fill="white"/>
<path d="M174.235 606.26C174.235 606.466 173.698 606.645 173.024 606.686C172.35 606.728 171.772 606.576 171.772 606.384C171.772 606.191 172.309 605.998 172.983 605.971C173.657 605.943 174.221 606.067 174.235 606.26Z" fill="white"/>
<path d="M178.074 606.081C178.074 606.287 177.785 606.452 177.399 606.48C177.014 606.507 176.711 606.342 176.698 606.15C176.684 605.957 176.987 605.778 177.372 605.764C177.757 605.751 178.06 605.888 178.074 606.081Z" fill="white"/>
<path d="M80.1777 810.266C80.3153 810.418 80.1777 810.748 79.9438 811.009C79.7099 811.271 79.3384 811.381 79.2008 811.243C79.0632 811.106 79.2008 810.762 79.4347 810.5C79.6686 810.239 80.0401 810.129 80.1777 810.266Z" fill="white"/>
<path d="M84.0165 806.606C84.1541 806.758 83.8376 807.281 83.301 807.776C82.7644 808.271 82.2278 808.574 82.0902 808.423C81.9527 808.271 82.2691 807.762 82.8057 807.253C83.3423 806.744 83.8927 806.455 84.0165 806.606Z" fill="white"/>
<path d="M87.979 803.057C88.1029 803.208 87.7726 803.717 87.2223 804.199C86.6719 804.68 86.1215 804.969 85.984 804.818C85.8464 804.666 86.1903 804.157 86.7407 803.662C87.2911 803.167 87.8414 802.905 87.979 803.057Z" fill="white"/>
<path d="M92.0242 799.617C92.1618 799.768 91.8041 800.277 91.24 800.745C90.6758 801.213 90.1117 801.474 89.9879 801.323C89.864 801.171 90.2218 800.662 90.7859 800.195C91.35 799.727 91.9004 799.465 92.0242 799.617Z" fill="white"/>
<path d="M96.1797 796.301C96.3035 796.452 95.932 796.947 95.3541 797.402C94.7762 797.856 94.2121 798.103 94.0883 797.952C93.9644 797.801 94.3359 797.291 94.9138 796.837C95.4917 796.383 96.0558 796.149 96.1797 796.301Z" fill="white"/>
<path d="M100.431 793.122C100.541 793.274 100.156 793.769 99.5782 794.196C99.0003 794.622 98.4086 794.856 98.2986 794.705C98.1885 794.553 98.56 794.058 99.1516 793.618C99.7433 793.177 100.307 792.944 100.431 793.122Z" fill="white"/>
<path d="M104.765 790.04C104.875 790.192 104.476 790.673 103.885 791.086C103.293 791.499 102.701 791.719 102.578 791.554C102.454 791.389 102.867 790.921 103.472 790.494C104.077 790.068 104.655 789.875 104.765 790.04Z" fill="white"/>
<path d="M109.182 787.082C109.292 787.247 108.879 787.715 108.274 788.114C107.669 788.513 107.077 788.706 106.898 788.541C106.719 788.376 107.201 787.922 107.806 787.523C108.412 787.123 109.072 786.917 109.182 787.082Z" fill="white"/>
<path d="M113.695 784.275C113.791 784.441 113.365 784.895 112.746 785.266C112.126 785.638 111.535 785.83 111.37 785.665C111.205 785.5 111.686 785.046 112.319 784.661C112.952 784.275 113.53 784.097 113.695 784.275Z" fill="white"/>
<path d="M118.277 781.579C118.373 781.757 117.933 782.198 117.3 782.555C116.667 782.913 116.075 783.078 115.924 782.913C115.773 782.748 116.254 782.308 116.887 781.936C117.52 781.565 118.181 781.413 118.277 781.579Z" fill="white"/>
<path d="M122.941 779.033C123.024 779.212 122.583 779.625 121.937 779.969C121.29 780.313 120.698 780.464 120.561 780.285C120.423 780.106 120.905 779.694 121.551 779.35C122.198 779.006 122.845 778.854 122.941 779.033Z" fill="white"/>
<path d="M127.674 776.611C127.757 776.79 127.303 777.203 126.643 777.533C125.982 777.864 125.39 777.987 125.267 777.809C125.143 777.63 125.638 777.217 126.299 776.887C126.959 776.556 127.578 776.433 127.674 776.611Z" fill="white"/>
<path d="M132.463 774.341C132.545 774.52 132.077 774.905 131.417 775.222C130.756 775.538 130.151 775.635 130.041 775.456C129.931 775.277 130.44 774.878 131.1 774.575C131.761 774.272 132.394 774.149 132.463 774.341Z" fill="white"/>
<path d="M136.15 772.704C136.233 772.883 136.012 773.158 135.668 773.309C135.324 773.461 134.967 773.433 134.898 773.309C134.829 773.185 135.036 772.855 135.38 772.704C135.723 772.552 136.081 772.484 136.15 772.704Z" fill="white"/>
<path d="M187.678 783.106C187.499 783.023 187.485 782.679 187.678 782.335C187.871 781.991 188.132 781.785 188.297 781.868C188.462 781.95 188.49 782.308 188.297 782.652C188.104 782.996 187.829 783.189 187.678 783.106Z" fill="white"/>
<path d="M185.559 787.935C185.38 787.867 185.463 787.261 185.738 786.559C186.013 785.858 186.398 785.404 186.577 785.472C186.756 785.541 186.687 786.16 186.398 786.848C186.109 787.536 185.752 788.004 185.559 787.935Z" fill="white"/>
<path d="M183.701 792.875C183.509 792.875 183.55 792.215 183.784 791.499C184.018 790.784 184.375 790.302 184.568 790.371C184.761 790.44 184.706 791.045 184.472 791.747C184.238 792.448 183.935 792.944 183.701 792.875Z" fill="white"/>
<path d="M182.243 797.924C182.05 797.924 182.05 797.264 182.243 796.549C182.436 795.833 182.752 795.324 182.945 795.379C183.137 795.434 183.124 796.053 182.945 796.755C182.766 797.457 182.436 797.98 182.243 797.924Z" fill="white"/>
<path d="M181.032 803.057C180.839 803.057 180.812 802.41 180.963 801.681C181.115 800.951 181.404 800.429 181.596 800.47C181.789 800.511 181.816 801.13 181.665 801.846C181.514 802.561 181.225 803.098 181.032 803.057Z" fill="white"/>
<path d="M180.138 808.258C179.945 808.258 179.877 807.625 179.987 806.882C180.097 806.139 180.358 805.602 180.551 805.63C180.743 805.657 180.812 806.276 180.702 807.005C180.592 807.735 180.331 808.258 180.138 808.258Z" fill="white"/>
<path d="M179.574 813.486C179.381 813.486 179.271 812.867 179.34 812.11C179.409 811.353 179.629 810.817 179.821 810.83C180.014 810.844 180.124 811.463 180.055 812.206C179.987 812.949 179.753 813.5 179.574 813.486Z" fill="white"/>
<path d="M179.298 818.742C179.092 818.742 178.954 818.15 178.982 817.366C179.01 816.582 179.188 815.99 179.395 815.99C179.601 815.99 179.725 816.596 179.697 817.366C179.67 818.137 179.491 818.756 179.298 818.742Z" fill="white"/>
<path d="M179.354 824.012C179.161 824.012 178.982 823.434 178.955 822.705C178.927 821.975 179.092 821.329 179.285 821.329C179.478 821.329 179.656 821.907 179.684 822.636C179.711 823.365 179.574 824.012 179.354 824.012Z" fill="white"/>
<path d="M179.574 828.016C179.381 828.016 179.188 827.74 179.161 827.355C179.133 826.97 179.271 826.653 179.463 826.64C179.656 826.626 179.849 826.929 179.876 827.3C179.904 827.672 179.807 828.002 179.574 828.016Z" fill="white"/>
<path d="M324.87 787.399C324.788 787.22 324.994 786.945 325.352 786.779C325.709 786.614 326.04 786.642 326.122 786.779C326.205 786.917 325.985 787.233 325.654 787.399C325.324 787.564 324.966 787.619 324.87 787.399Z" fill="#FAFAFA"/>
<path d="M320.192 790.109C320.082 789.944 320.509 789.49 321.141 789.091C321.774 788.692 322.394 788.499 322.517 788.678C322.641 788.857 322.187 789.311 321.554 789.696C320.921 790.082 320.302 790.274 320.192 790.109Z" fill="#FAFAFA"/>
<path d="M315.926 793.439C315.789 793.301 316.147 792.792 316.724 792.297C317.302 791.801 317.88 791.554 318.004 791.705C318.128 791.857 317.756 792.379 317.192 792.847C316.628 793.315 316.05 793.59 315.926 793.439Z" fill="#FAFAFA"/>
<path d="M312.143 797.333C311.991 797.195 312.28 796.645 312.789 796.08C313.299 795.516 313.821 795.186 313.973 795.324C314.124 795.461 313.821 796.012 313.326 796.562C312.831 797.112 312.294 797.456 312.143 797.333Z" fill="#FAFAFA"/>
<path d="M308.91 801.694C308.744 801.584 308.91 800.993 309.377 800.318C309.845 799.644 310.285 799.273 310.437 799.396C310.588 799.52 310.437 800.112 309.969 800.772C309.501 801.433 309.116 801.791 308.91 801.694Z" fill="#FAFAFA"/>
<path d="M306.378 806.455C306.199 806.372 306.378 805.767 306.653 805.079C306.928 804.391 307.409 803.937 307.575 804.033C307.74 804.13 307.575 804.735 307.299 805.409C307.024 806.083 306.57 806.537 306.378 806.455Z" fill="#FAFAFA"/>
<path d="M304.506 811.546C304.328 811.546 304.355 810.858 304.589 810.17C304.823 809.482 305.181 808.931 305.359 809C305.538 809.069 305.511 809.688 305.277 810.376C305.043 811.064 304.699 811.587 304.506 811.546Z" fill="#FAFAFA"/>
<path d="M303.406 816.829C303.213 816.829 303.158 816.169 303.296 815.453C303.433 814.738 303.708 814.146 303.901 814.188C304.094 814.229 304.135 814.862 303.997 815.563C303.86 816.265 303.543 816.857 303.406 816.829Z" fill="#FAFAFA"/>
<path d="M302.924 822.223C302.718 822.223 302.594 821.604 302.621 820.847C302.649 820.09 302.842 819.471 303.048 819.471C303.254 819.471 303.378 820.104 303.337 820.847C303.296 821.59 303.117 822.223 302.924 822.223Z" fill="#FAFAFA"/>
<path d="M303.089 826.295C302.897 826.295 302.718 826.02 302.69 825.635C302.663 825.25 302.787 824.933 302.993 824.92C303.199 824.906 303.365 825.209 303.392 825.58C303.42 825.952 303.296 826.282 303.089 826.295Z" fill="#FAFAFA"/>
<path d="M277.731 807.955C277.731 808.147 277.098 808.312 276.355 808.299C275.612 808.285 274.979 808.134 274.979 807.941C274.979 807.748 275.626 807.583 276.355 807.583C277.085 807.583 277.731 807.762 277.731 807.955Z" fill="#FAFAFA"/>
<path d="M283.414 807.542C283.414 807.748 282.822 807.968 282.038 808.037C281.254 808.106 280.662 808.037 280.593 807.831C280.524 807.624 281.199 807.404 281.969 807.335C282.74 807.267 283.386 807.349 283.414 807.542Z" fill="#FAFAFA"/>
<path d="M287.583 806.881C287.583 807.074 287.349 807.294 286.977 807.363C286.606 807.432 286.262 807.363 286.234 807.143C286.207 806.923 286.468 806.73 286.84 806.661C287.211 806.592 287.542 806.661 287.583 806.881Z" fill="#FAFAFA"/>
<g opacity="0.3">
<path opacity="0.3" d="M342.495 791.485C336.727 790.433 330.817 790.433 325.049 791.485C322.581 792.04 320.262 793.124 318.253 794.66C316.244 796.197 314.591 798.151 313.409 800.387C311.141 804.595 310.439 809.47 311.427 814.146C312.253 818.178 313.12 822.402 316.064 825.154C320.412 829.378 324.705 830.74 330.319 829.749L341.202 826.199L342.495 791.485Z" fill="#333333"/>
</g>
<path d="M333.18 829.075C332.957 829.208 332.716 829.31 332.465 829.378C331.758 829.637 331.031 829.835 330.291 829.969C327.546 830.535 324.702 830.378 322.035 829.515C320.194 828.917 318.494 827.947 317.041 826.667C315.396 825.186 314.047 823.408 313.064 821.425C311.97 819.256 311.2 816.938 310.78 814.545C310.225 811.98 310.165 809.332 310.602 806.744C311.167 804.187 312.142 801.738 313.491 799.493C314.648 797.461 316.216 795.692 318.095 794.299C319.973 792.906 322.121 791.919 324.402 791.402C326.275 790.999 328.183 790.783 330.098 790.756C332.859 790.734 335.619 790.913 338.354 791.292L340.569 791.609C340.832 791.63 341.091 791.685 341.339 791.774C341.079 791.804 340.816 791.804 340.555 791.774L338.326 791.581C335.61 791.319 332.881 791.218 330.153 791.279C328.3 791.338 326.457 791.578 324.65 791.994C322.572 792.496 320.61 793.393 318.871 794.636C315.002 797.704 312.353 802.05 311.4 806.895C310.986 809.397 311.042 811.954 311.565 814.435C311.964 816.77 312.696 819.036 313.739 821.163C314.678 823.085 315.966 824.816 317.536 826.268C318.924 827.493 320.542 828.429 322.297 829.02C324.872 829.89 327.621 830.117 330.305 829.68C332.148 829.391 333.167 829.006 333.18 829.075Z" fill="#333333"/>
<path d="M291.93 767.819C291.94 768.052 291.912 768.284 291.848 768.507C291.765 769.044 291.641 769.691 291.504 770.475C291.16 772.167 290.72 774.603 290.197 777.671C288.808 785.587 288.072 793.603 287.995 801.639C287.998 806.059 288.269 810.475 288.807 814.862C289.271 818.443 289.923 821.998 290.761 825.511C291.077 827.025 291.49 828.36 291.793 829.543C292.095 830.726 292.412 831.731 292.673 832.556C292.935 833.382 293.086 833.932 293.237 834.469C293.323 834.689 293.374 834.921 293.389 835.157C293.272 834.951 293.175 834.734 293.1 834.51L292.412 832.652C292.109 831.841 291.752 830.836 291.408 829.653C291.064 828.47 290.609 827.149 290.266 825.635C289.352 822.121 288.644 818.555 288.147 814.958C287.576 810.541 287.286 806.093 287.28 801.639C287.332 793.567 288.124 785.516 289.646 777.588C290.224 774.548 290.747 772.085 291.174 770.42C291.366 769.636 291.531 769.044 291.655 768.48C291.716 768.248 291.809 768.026 291.93 767.819Z" fill="#333333"/>
<path d="M387.942 806.62C387.38 806.782 386.832 806.989 386.304 807.239C385.259 807.666 383.731 808.271 381.833 808.918C380.869 809.248 379.824 809.578 378.682 809.909C377.54 810.239 376.301 810.514 375.022 810.954C373.627 811.373 372.375 812.168 371.403 813.252C370.868 813.852 370.504 814.585 370.349 815.374C370.194 816.163 370.254 816.98 370.523 817.737C370.859 818.496 371.454 819.111 372.201 819.471C372.905 819.806 373.666 820.002 374.444 820.049C375.864 820.107 377.286 820.001 378.682 819.733C381.032 819.309 383.336 818.66 385.561 817.792C387.46 817.077 388.96 816.417 389.992 815.935C390.537 815.72 391.062 815.458 391.56 815.151C390.996 815.307 390.444 815.505 389.909 815.742C388.85 816.141 387.336 816.761 385.424 817.421C383.187 818.222 380.885 818.829 378.544 819.237C377.182 819.477 375.798 819.569 374.416 819.512C373.712 819.457 373.023 819.28 372.38 818.99C371.769 818.668 371.284 818.149 371.004 817.517C370.779 816.849 370.734 816.133 370.874 815.442C371.014 814.751 371.335 814.11 371.802 813.582C372.714 812.578 373.878 811.837 375.173 811.436C376.412 810.995 377.65 810.707 378.792 810.349C379.934 809.991 380.98 809.647 381.929 809.289C383.841 808.588 385.341 807.913 386.359 807.446C386.91 807.217 387.439 806.941 387.942 806.62Z" fill="#EB996E"/>
<path d="M386.538 797.016C385.981 797.177 385.438 797.384 384.915 797.635C383.869 798.062 382.369 798.681 380.471 799.355C378.572 800.029 376.343 800.731 373.742 801.447C372.322 801.692 370.979 802.267 369.821 803.125C369.213 803.656 368.817 804.389 368.707 805.189C368.605 805.999 368.738 806.82 369.092 807.556C369.452 808.258 369.953 808.878 370.564 809.377C371.175 809.877 371.882 810.245 372.642 810.459C374.021 810.867 375.476 810.951 376.893 810.707C379.216 810.197 381.49 809.488 383.69 808.588L388.148 806.909C388.706 806.726 389.249 806.5 389.772 806.235C389.194 806.335 388.627 806.491 388.08 806.703L383.553 808.216C381.365 809.05 379.115 809.712 376.825 810.197C375.483 810.425 374.107 810.336 372.807 809.936C372.122 809.743 371.484 809.412 370.932 808.962C370.381 808.513 369.927 807.954 369.601 807.322C369.265 806.713 369.14 806.009 369.247 805.322C369.354 804.634 369.687 804.002 370.193 803.524C371.281 802.724 372.537 802.183 373.866 801.942C376.151 801.321 378.401 800.582 380.608 799.727C382.493 798.997 383.979 798.351 384.997 797.842C385.535 797.614 386.051 797.338 386.538 797.016Z" fill="#EB996E"/>
<path d="M380.181 799.892C380.441 799.015 380.625 798.117 380.732 797.209C381.02 796.34 381.227 795.446 381.351 794.54C380.782 795.295 380.383 796.164 380.181 797.088C379.979 798.012 379.979 798.968 380.181 799.892Z" fill="#EB996E"/>
<path d="M333.181 801.281L344.958 796.452C344.958 796.452 377.609 780.381 378.187 781.193C378.765 782.005 380.553 781.895 380.237 785.912C379.92 789.93 360.892 798.461 360.314 799.864C359.736 801.268 360.892 808.285 353.902 813.486C346.912 818.687 341.794 818.893 341.794 818.893" fill="#FFBE9D"/>
<path d="M341.794 818.893H342.069L342.894 818.797C343.939 818.616 344.966 818.345 345.963 817.985C347.543 817.433 349.068 816.733 350.517 815.894C352.469 814.818 354.28 813.505 355.911 811.986C357.856 810.062 359.212 807.623 359.818 804.955C360.12 803.489 360.322 802.004 360.424 800.511C360.436 800.337 360.473 800.165 360.534 800.002C360.534 799.892 360.685 799.795 360.836 799.672C360.988 799.548 361.456 799.231 361.786 799.025C362.446 798.612 363.162 798.227 363.85 797.828C366.684 796.246 369.697 794.636 372.724 792.806C374.278 791.888 375.784 790.891 377.237 789.82C377.994 789.271 378.703 788.659 379.356 787.99C379.698 787.639 379.994 787.246 380.237 786.821C380.361 786.587 380.449 786.337 380.498 786.078C380.498 785.802 380.498 785.582 380.498 785.348C380.579 784.359 380.379 783.367 379.92 782.486C379.643 782.073 379.282 781.721 378.861 781.455C378.683 781.355 378.525 781.225 378.393 781.069L378.269 780.959C378.199 780.915 378.118 780.892 378.035 780.89H377.815L377.457 780.987C375.682 781.565 374.059 782.363 372.435 783.023C369.202 784.468 366.12 785.926 363.175 787.316C357.314 790.068 352.058 792.682 347.669 794.856C346.554 795.393 345.522 795.943 344.518 796.397L341.642 797.594L337.033 799.534L334.13 800.786L333.373 801.116L333.125 801.254C333.125 801.254 333.222 801.254 333.401 801.171L334.171 800.882L337.116 799.74L341.766 797.883L344.669 796.713C345.688 796.273 346.72 795.736 347.834 795.214L363.396 787.784C366.34 786.408 369.422 784.963 372.655 783.532C374.265 782.83 375.916 782.074 377.609 781.51L377.911 781.427H378.022C378.022 781.427 378.022 781.344 378.022 781.289C377.65 781.551 377.925 781.372 377.856 781.441C378.022 781.64 378.222 781.808 378.448 781.936C378.811 782.155 379.121 782.451 379.356 782.803C379.757 783.593 379.924 784.481 379.838 785.362C379.866 785.785 379.781 786.208 379.59 786.587C379.373 786.97 379.105 787.322 378.792 787.632C378.162 788.278 377.481 788.871 376.756 789.407C375.32 790.468 373.832 791.455 372.298 792.366C369.271 794.195 366.271 795.805 363.451 797.401C362.735 797.814 362.075 798.213 361.373 798.626C361.027 798.838 360.691 799.067 360.369 799.314C360.177 799.455 360.022 799.638 359.915 799.851C359.85 800.051 359.808 800.259 359.791 800.47C359.696 801.953 359.503 803.428 359.213 804.886C358.651 807.488 357.357 809.875 355.484 811.766C353.89 813.274 352.12 814.586 350.214 815.674C348.79 816.528 347.294 817.255 345.743 817.847C344.762 818.22 343.755 818.519 342.729 818.742C342.372 818.824 342.096 818.866 341.918 818.893H341.794Z" fill="#EB996E"/>
<path d="M378.186 819.677C377.751 819.745 377.329 819.88 376.934 820.076C375.826 820.541 374.792 821.167 373.866 821.934C373.218 822.462 372.628 823.057 372.105 823.709C371.78 824.085 371.533 824.522 371.38 824.994C371.226 825.467 371.169 825.966 371.21 826.461C371.333 827.018 371.607 827.53 372.003 827.941C372.399 828.351 372.901 828.644 373.453 828.786C374.597 829.071 375.799 829.008 376.907 828.607C380.654 827.399 384.283 825.852 387.749 823.984C388.796 823.411 389.811 822.782 390.79 822.099C391.165 821.876 391.507 821.603 391.808 821.287C391.412 821.469 391.03 821.681 390.666 821.92C389.95 822.347 388.891 822.952 387.556 823.64C384.071 825.394 380.456 826.875 376.742 828.07C375.741 828.436 374.656 828.502 373.618 828.263C373.156 828.157 372.733 827.924 372.395 827.592C372.057 827.259 371.819 826.839 371.706 826.378C371.636 825.493 371.912 824.615 372.476 823.929C372.962 823.289 373.516 822.703 374.127 822.182C375.37 821.18 376.734 820.338 378.186 819.677Z" fill="#EB996E"/>
<path d="M191.131 787.192L212.086 787.632C212.086 787.632 243.512 776.267 249.979 777.354C255.799 778.331 277.112 792.489 281.281 795.241C281.742 795.555 282.097 796.001 282.299 796.521C282.705 797.63 282.667 798.853 282.193 799.935C281.718 801.017 280.845 801.874 279.754 802.327L279.313 802.52L279.506 803.153C279.752 803.978 279.859 804.838 279.822 805.698C279.785 806.356 279.536 806.983 279.114 807.489C278.692 807.994 278.118 808.351 277.478 808.505C276.838 808.659 276.165 808.603 275.559 808.346C274.953 808.088 274.445 807.642 274.112 807.074L274.91 808.45C275.239 809.032 275.396 809.695 275.364 810.362L275.296 811.656C275.254 812.358 275.001 813.031 274.572 813.588C274.143 814.145 273.556 814.56 272.888 814.779C272.25 814.99 271.565 815.012 270.915 814.841C270.265 814.67 269.679 814.314 269.228 813.816C266.476 810.844 260.683 804.9 256.735 804.185C252.453 803.667 248.14 803.451 243.828 803.538C242.956 803.538 242.104 803.8 241.382 804.291C240.661 804.782 240.104 805.478 239.783 806.29C242.122 806.455 258.454 814.972 264.233 818.012C265.126 818.46 265.897 819.117 266.481 819.927C267.066 820.736 267.446 821.675 267.591 822.663C267.797 824.479 266.889 826.378 263.311 825.539C255.634 823.75 241.82 817.393 241.82 817.393C241.82 817.393 234.692 815.357 230.069 818.618C223.575 823.2 220.603 824.878 215.017 823.021C211.647 821.89 208.416 820.38 205.385 818.522L186.37 820.365C186.37 820.365 174.689 801.584 191.131 787.192Z" fill="white"/>
<path d="M239.66 792.93C239.66 793.054 241.889 792.352 245.562 792.118C250.351 791.797 255.147 792.611 259.561 794.495C263.975 796.38 267.881 799.28 270.962 802.96C272.214 804.505 273.381 806.117 274.457 807.79C274.287 807.275 274.051 806.785 273.755 806.331C273.036 805.05 272.213 803.83 271.292 802.685C268.244 798.863 264.295 795.857 259.8 793.936C255.305 792.015 250.404 791.239 245.535 791.678C244.068 791.802 242.614 792.045 241.187 792.407C240.66 792.523 240.148 792.699 239.66 792.93Z" fill="#333333"/>
<path d="M242.989 785.307C244.988 784.7 247.053 784.339 249.14 784.234C254.214 784.198 259.194 785.601 263.504 788.279C267.75 791.012 271.622 794.286 275.02 798.02L278.171 801.378C278.54 801.81 278.945 802.211 279.382 802.575C279.078 802.087 278.733 801.627 278.35 801.199C277.648 800.36 276.63 799.162 275.323 797.718C271.988 793.852 268.109 790.492 263.807 787.742C259.426 785.015 254.339 783.637 249.181 783.78C247.633 783.859 246.101 784.141 244.627 784.619C244.223 784.746 243.828 784.898 243.443 785.073C243.113 785.211 242.975 785.28 242.989 785.307Z" fill="#333333"/>
<path d="M197.796 828.237C197.579 828.212 197.368 828.155 197.17 828.069C196.568 827.896 195.98 827.681 195.411 827.424C193.311 826.486 191.411 825.183 189.807 823.58C187.424 821.187 185.594 818.336 184.435 815.213C183.001 811.398 182.455 807.324 182.837 803.277C183.295 799.217 184.865 795.341 187.387 792.045C189.407 789.35 191.979 787.08 194.945 785.375C196.923 784.213 199.075 783.352 201.324 782.822C201.948 782.691 202.58 782.598 203.215 782.545C203.432 782.503 203.653 782.491 203.872 782.509C200.832 783.172 197.92 784.302 195.251 785.857C192.395 787.584 189.921 789.837 187.971 792.484C185.56 795.706 184.059 799.471 183.615 803.41C183.245 807.354 183.756 811.324 185.113 815.056C186.216 818.112 187.956 820.917 190.227 823.302C191.762 824.902 193.574 826.234 195.583 827.239C196.977 827.878 197.82 828.169 197.796 828.237Z" fill="white"/>
<path d="M459.31 835.046H267.453L292.22 700.386C292.641 698.069 293.863 695.975 295.67 694.466C297.478 692.957 299.758 692.131 302.112 692.13H474.514C475.996 692.13 477.46 692.457 478.801 693.088C480.141 693.72 481.326 694.639 482.27 695.782C483.214 696.924 483.894 698.261 484.261 699.697C484.628 701.133 484.673 702.632 484.393 704.087L459.31 835.046Z" fill="#E5E5E5"/>
<path d="M267.453 835.046H194.708L194.997 834.826C201.49 829.958 209.327 827.214 217.439 826.97L269.476 825.442L267.453 835.046Z" fill="white"/>
<circle cx="385.286" cy="760.568" r="9.27366" fill="#3C004F"/>
<mask id="mask0_151_218" style="mask-type:alpha" maskUnits="userSpaceOnUse" x="376" y="751" width="19" height="19">
<circle cx="385.286" cy="760.568" r="9.27366" fill="white"/>
</mask>
<g mask="url(#mask0_151_218)">
<rect x="387.253" y="758.575" width="3.70946" height="16.4609" rx="1.85473" transform="rotate(45 387.253 758.575)" fill="url(#paint0_linear_151_218)"/>
<path fill-rule="evenodd" clip-rule="evenodd" d="M383.745 760.365L393.495 750.616C393.73 750.38 393.73 749.999 393.495 749.763C393.259 749.528 392.878 749.528 392.642 749.763L382.893 759.513C382.657 759.748 382.657 760.13 382.893 760.365C383.128 760.6 383.51 760.6 383.745 760.365ZM394.38 748.878C393.656 748.154 392.481 748.154 391.757 748.878L382.008 758.627C381.283 759.352 381.283 760.526 382.008 761.25C382.732 761.975 383.906 761.975 384.631 761.25L394.38 751.501C395.104 750.777 395.104 749.602 394.38 748.878Z" fill="url(#paint1_linear_151_218)"/>
</g>
<path d="M960.438 834.936L976.564 664.323C976.863 661.146 976.504 657.94 975.509 654.907C974.514 651.875 972.904 649.08 970.78 646.697C968.655 644.315 966.063 642.396 963.164 641.061C960.264 639.726 957.121 639.003 953.93 638.938L774.456 635.292C768.556 635.192 762.84 637.343 758.47 641.307C754.099 645.271 751.402 650.751 750.928 656.632L737.168 834.868L960.438 834.936Z" fill="#F5F5F5"/>
<path fill-rule="evenodd" clip-rule="evenodd" d="M817.255 507.188L817.136 560.153L780.578 576.223L749.964 564.982V560.139C749.964 560.139 723.134 558.213 720.616 531.754C719.433 519.316 719.061 493.834 718.992 470.347C718.955 457.403 723.792 444.919 732.543 435.381C741.293 425.843 753.314 419.95 766.214 418.874H766.97C773.541 418.714 780.077 419.873 786.192 422.282C792.307 424.691 797.877 428.301 802.573 432.9C807.269 437.498 810.996 442.991 813.533 449.055C816.069 455.118 817.365 461.628 817.343 468.201L817.317 479.556C822.179 479.759 827.571 482.27 828.075 492.183C828.619 502.886 822.433 506.296 817.255 507.188Z" fill="white"/>
<path fill-rule="evenodd" clip-rule="evenodd" d="M749.964 560.139V564.982L780.578 576.223L817.136 560.153L817.255 507.188C822.433 506.296 828.619 502.886 828.075 492.183C827.571 482.27 822.179 479.759 817.317 479.556L817.343 468.201C817.365 461.628 816.069 455.118 813.533 449.055C810.996 442.991 807.269 437.498 802.573 432.9C797.877 428.301 792.307 424.691 786.192 422.282C780.077 419.873 773.541 418.714 766.97 418.874H766.214C753.314 419.95 741.293 425.843 732.543 435.381C723.792 444.919 718.955 457.403 718.992 470.347C719.061 493.834 719.433 519.316 720.616 531.754C723.134 558.213 749.964 560.139 749.964 560.139ZM766.271 420.25H766.987L767.004 420.25C773.391 420.094 779.744 421.22 785.688 423.562C791.632 425.904 797.046 429.413 801.611 433.883C806.175 438.353 809.797 443.692 812.263 449.586C814.729 455.479 815.988 461.807 815.967 468.196L815.967 468.197L815.938 480.876L817.26 480.931C819.49 481.024 821.691 481.64 823.39 483.232C825.076 484.813 826.461 487.538 826.701 492.252C826.958 497.317 825.623 500.457 823.8 502.431C821.949 504.436 819.431 505.417 817.022 505.832L815.882 506.028L815.762 559.254L780.532 574.741L751.34 564.022V558.858L750.064 558.767L750.063 558.767L750.054 558.766L750.007 558.762C749.964 558.758 749.896 558.752 749.805 558.742C749.624 558.724 749.351 558.692 748.999 558.642C748.295 558.543 747.277 558.371 746.044 558.084C743.574 557.51 740.264 556.479 736.888 554.658C730.176 551.037 723.192 544.3 721.986 531.624C720.81 519.261 720.437 493.849 720.368 470.343C720.331 457.745 725.04 445.595 733.557 436.311C742.06 427.042 753.738 421.309 766.271 420.25Z" fill="#333333"/>
<path d="M858.152 721.245L930.828 703.358C930.828 703.358 926.205 692.144 913.395 654.128C901.562 619.001 891.381 606.961 891.381 606.961C891.381 606.961 854.231 586.488 832.464 574.641L817.15 558.529V560.153L802.978 566.386L780.51 576.278L758.935 568.353L749.896 565.037L746.703 571.325L708.178 581.92C708.178 581.92 680.66 591.909 663.02 632.292C641.226 682.059 637.704 695.303 637.704 695.303L696.551 723.749L687.099 834.895L861.207 835.005L857.767 749.836L858.152 721.245Z" fill="url(#paint2_linear_151_218)"/>
<path d="M848.15 633.599C848.133 632.997 848.198 632.395 848.342 631.81C848.634 630.193 849.095 628.611 849.718 627.091C851.793 622.037 855.221 617.652 859.625 614.419C865.404 610.283 872.28 607.951 879.383 607.718C879.977 607.65 880.577 607.65 881.171 607.718C881.171 607.856 878.612 607.856 874.595 608.654C869.349 609.666 864.387 611.807 860.051 614.928C855.75 618.101 852.35 622.341 850.186 627.229C849.353 629.3 848.672 631.429 848.15 633.599Z" fill="white"/>
<path d="M746.704 571.325C746.836 571.685 746.924 572.059 746.965 572.44C747.103 573.279 747.281 574.325 747.502 575.591V575.494C752.233 581.301 757.529 586.624 763.311 591.386C764.026 591.964 764.742 592.528 765.457 593.078C766.145 593.629 766.916 594.138 767.494 593.849C768.071 593.56 768.388 592.624 768.87 591.923L770.108 589.776C771.745 587.024 773.314 584.548 774.676 582.525C776.038 580.503 777.221 578.92 778.074 577.861C778.501 577.324 778.845 576.925 779.093 576.664C779.34 576.402 779.464 576.265 779.492 576.278C779.131 576.883 778.736 577.467 778.308 578.026C777.524 579.14 776.41 580.778 775.102 582.814C773.795 584.85 772.351 587.327 770.672 590.106C770.287 590.808 769.874 591.482 769.461 592.253L768.856 593.381C768.638 593.836 768.288 594.215 767.851 594.468C767.606 594.59 767.335 594.654 767.06 594.654C766.786 594.654 766.515 594.59 766.269 594.468C765.844 594.257 765.446 593.993 765.086 593.684C764.357 593.133 763.71 592.569 762.912 591.978C757.037 587.202 751.749 581.748 747.158 575.728C747.02 574.449 746.896 573.389 746.8 572.55C746.712 572.148 746.679 571.736 746.704 571.325Z" fill="white"/>
<path d="M830.042 573.678C829.871 573.829 829.682 573.959 829.478 574.063L827.772 575.04L821.512 578.59C816.228 581.617 808.991 585.882 801.176 590.877C797.819 593.037 794.613 595.142 791.709 597.096L791.407 597.302L791.228 596.986C787.994 591.331 785.339 586.419 783.592 582.883C782.711 581.108 782.051 579.691 781.652 578.686C781.414 578.187 781.225 577.667 781.087 577.132C781.378 577.601 781.631 578.094 781.844 578.604C782.312 579.567 783.041 580.957 783.963 582.731C785.821 586.213 788.531 591.07 791.806 596.697L791.338 596.587C794.227 594.606 797.419 592.459 800.79 590.313C808.619 585.318 815.926 581.108 821.264 578.191C823.933 576.733 826.121 575.604 827.648 574.834L829.409 573.967C829.605 573.839 829.818 573.742 830.042 573.678Z" fill="white"/>
<path d="M790.292 653.728C789.954 653.765 789.612 653.765 789.274 653.728L786.371 653.467L775.735 652.325H775.487V652.064C775.749 644.964 776.093 635.704 776.464 625.577C776.96 614.267 777.414 604.03 777.744 596.518C777.936 592.872 778.102 589.886 778.212 587.712C778.276 586.731 778.331 585.933 778.377 585.318C778.385 585.035 778.422 584.754 778.487 584.479C778.523 584.757 778.523 585.039 778.487 585.318C778.487 585.951 778.487 586.694 778.487 587.726C778.487 589.9 778.335 592.886 778.239 596.532C777.964 604.058 777.592 614.295 777.166 625.605C776.726 635.732 776.327 644.978 776.01 652.091L775.776 651.816L786.371 653.192L789.26 653.605C789.608 653.605 789.954 653.647 790.292 653.728Z" fill="white"/>
<path fill-rule="evenodd" clip-rule="evenodd" d="M788.171 619.068C790.618 619.068 792.602 617.084 792.602 614.637C792.602 612.191 790.618 610.207 788.171 610.207C785.724 610.207 783.741 612.191 783.741 614.637C783.741 617.084 785.724 619.068 788.171 619.068ZM788.171 619.756C790.998 619.756 793.29 617.464 793.29 614.637C793.29 611.811 790.998 609.519 788.171 609.519C785.344 609.519 783.053 611.811 783.053 614.637C783.053 617.464 785.344 619.756 788.171 619.756Z" fill="#1EF99F"/>
<path fill-rule="evenodd" clip-rule="evenodd" d="M787.153 642.294C789.6 642.294 791.584 640.311 791.584 637.864C791.584 635.417 789.6 633.434 787.153 633.434C784.706 633.434 782.723 635.417 782.723 637.864C782.723 640.311 784.706 642.294 787.153 642.294ZM787.153 642.982C789.98 642.982 792.271 640.691 792.271 637.864C792.271 635.037 789.98 632.746 787.153 632.746C784.326 632.746 782.035 635.037 782.035 637.864C782.035 640.691 784.326 642.982 787.153 642.982Z" fill="#1EF99F"/>
<path d="M727.909 486.473C727.979 487.461 728.433 488.382 729.173 489.04C729.914 489.698 730.882 490.041 731.871 489.995C732.356 489.992 732.835 489.891 733.281 489.701C733.726 489.51 734.129 489.232 734.466 488.883C734.803 488.535 735.067 488.123 735.243 487.671C735.419 487.219 735.503 486.737 735.49 486.253C735.416 485.267 734.96 484.349 734.22 483.694C733.48 483.039 732.514 482.698 731.527 482.744C731.043 482.746 730.564 482.844 730.119 483.033C729.673 483.223 729.27 483.499 728.933 483.847C728.596 484.194 728.331 484.605 728.156 485.056C727.98 485.507 727.896 485.989 727.909 486.473Z" fill="#333333"/>
<path d="M725.748 481.01C726.257 481.464 728.954 479.111 733.027 478.781C737.099 478.451 740.25 480.24 740.649 479.703C740.842 479.469 740.292 478.616 738.916 477.777C737.057 476.693 734.908 476.213 732.765 476.401C730.646 476.566 728.636 477.405 727.028 478.795C725.858 479.882 725.5 480.79 725.748 481.01Z" fill="#333333"/>
<path d="M766.627 483.858C766.697 484.846 767.151 485.768 767.892 486.426C768.632 487.084 769.6 487.426 770.589 487.381C771.074 487.377 771.553 487.277 771.999 487.086C772.444 486.895 772.847 486.618 773.184 486.269C773.521 485.921 773.785 485.509 773.961 485.057C774.137 484.605 774.221 484.123 774.208 483.638C774.134 482.653 773.679 481.735 772.939 481.08C772.199 480.425 771.233 480.084 770.245 480.13C769.761 480.131 769.283 480.23 768.837 480.419C768.392 480.608 767.988 480.885 767.651 481.232C767.314 481.58 767.05 481.991 766.874 482.442C766.698 482.893 766.614 483.374 766.627 483.858Z" fill="#333333"/>
<path d="M765.815 478.465C766.324 478.919 769.021 476.552 773.08 476.236C777.139 475.92 780.303 477.694 780.702 477.158C780.909 476.924 780.358 476.071 778.969 475.232C777.112 474.145 774.962 473.664 772.818 473.856C770.705 474.016 768.699 474.851 767.095 476.236C765.925 477.337 765.567 478.259 765.815 478.465Z" fill="#333333"/>
<path d="M753.542 509.863C753.542 509.629 750.982 509.395 746.841 509.216C745.795 509.216 744.791 509.065 744.557 508.377C744.378 507.311 744.532 506.216 744.997 505.24C745.768 502.64 746.566 499.915 747.419 497.067C750.749 485.454 753.074 475.933 752.606 475.795C752.138 475.658 749.042 484.987 745.726 496.599C744.928 499.461 744.167 502.213 743.442 504.855C742.894 506.164 742.821 507.625 743.236 508.982C743.417 509.338 743.678 509.647 743.997 509.885C744.317 510.124 744.687 510.286 745.08 510.358C745.665 510.469 746.261 510.501 746.855 510.455C750.927 510.29 753.555 510.097 753.542 509.863Z" fill="#333333"/>
<path d="M765.76 511.679C765.086 511.679 765.443 516.11 761.921 519.563C758.399 523.017 753.666 522.921 753.666 523.54C753.666 523.815 754.78 524.31 756.775 524.2C759.356 524.011 761.79 522.926 763.655 521.132C765.448 519.398 766.499 517.035 766.585 514.541C766.64 512.684 766.063 511.638 765.76 511.679Z" fill="#333333"/>
<path d="M763.448 462.601C763.944 463.674 767.962 462.807 772.777 462.986C777.593 463.165 781.569 464.155 782.12 463.11C782.367 462.614 781.611 461.624 779.959 460.688C777.784 459.514 775.359 458.882 772.887 458.844C770.428 458.738 767.977 459.209 765.733 460.22C764.04 461.142 763.228 462.091 763.448 462.601Z" fill="#333333"/>
<path d="M726.271 469.109C727.069 469.975 729.793 468.778 733.151 468.462C736.508 468.145 739.425 468.572 740.03 467.54C740.278 467.045 739.755 466.164 738.434 465.394C736.68 464.493 734.698 464.132 732.739 464.358C730.779 464.583 728.931 465.384 727.427 466.659C726.23 467.705 725.927 468.682 726.271 469.109Z" fill="#333333"/>
<path d="M786.192 441.549L786.344 441.645C790.836 444.619 794.006 449.213 795.191 454.469C795.191 454.662 795.273 454.84 795.315 455.006C796.98 462.477 797.42 470.141 799.153 477.626C800.887 485.111 800.529 490.766 808.028 492.444C809.986 492.869 812.026 492.693 813.882 491.94C815.738 491.186 817.323 489.89 818.43 488.22C818.977 487.127 819.201 485.9 819.077 484.684C818.98 466.329 822.682 459.202 821.058 440.132C820.854 437.578 820.046 435.109 818.699 432.929C817.352 430.749 815.505 428.922 813.312 427.597C809.074 425.066 803.955 422.507 799.69 424.969C795.425 427.432 790.375 436.224 787.224 440.036" fill="#333333"/>
<path d="M800.543 427.721C804.396 420.112 791.324 410.729 782.161 408.651C772.997 406.573 761.522 411.898 752.936 415.531C747.433 417.856 742.094 420.91 736.178 421.158C732.201 421.323 728.308 420.195 724.455 419.19C720.668 417.938 716.665 417.47 712.691 417.815C708.756 418.42 704.862 420.855 703.651 424.694C702.44 428.533 705.027 433.335 709.004 433.555C703.761 431.216 696.813 435.426 696.469 441.15C696.125 446.874 702.509 451.91 707.985 450.217C705.233 448.484 701.574 452.034 702.165 455.226C702.757 458.418 705.853 460.509 708.921 461.555C716.736 464.307 725.432 462.463 733.054 459.188C740.677 455.914 747.557 451.208 755.069 447.754C762.582 444.301 775.13 438.123 783.138 440.242C789.027 441.783 793.581 448.346 796.69 446.557C798.149 445.617 799.366 444.348 800.246 442.852C801.125 441.357 801.641 439.676 801.754 437.944C801.906 434.475 801.497 431.005 800.543 427.666" fill="#333333"/>
<path fill-rule="evenodd" clip-rule="evenodd" d="M950.132 766.416L924.471 705.064L868.788 718.617L887.253 765.301L820.672 775.786L820.672 775.802C817.027 775 806.278 772.642 801.148 771.589C800.074 771.363 799.07 770.938 798.066 770.514C797.178 770.139 796.291 769.764 795.356 769.525C785.614 766.994 773.685 760.706 770.974 758.064C766.269 753.455 762.801 760.554 767.493 766.32C769.774 769.385 772.567 772.033 775.749 774.148L755.867 779.363C754.832 779.637 753.938 780.291 753.363 781.193L738.008 805.506C737.301 806.456 736.968 807.632 737.072 808.812C737.176 809.991 737.71 811.092 738.572 811.904C738.984 812.348 739.549 812.62 740.154 812.666C740.758 812.712 741.358 812.528 741.833 812.151L739.851 815.453C736.59 820.957 744.598 826.268 748.107 820.957C748.16 820.899 748.206 820.834 748.244 820.764L752.083 825.965C752.083 825.965 753.913 831.042 759.788 827.782C764.659 825.03 781.005 813.032 781.005 813.032C781.005 813.032 804.722 813.569 819.008 811.365L819.007 811.367L909.047 820.104C916.677 821.114 924.436 819.844 931.346 816.453C938.255 813.062 944.007 807.702 947.875 801.048C950.9 795.841 952.678 790.005 953.069 783.997C953.46 777.988 952.455 771.971 950.132 766.416Z" fill="white"/>
<path fill-rule="evenodd" clip-rule="evenodd" d="M925.224 703.574L951.303 765.926L950.132 766.416L924.471 705.064L868.788 718.617L887.253 765.302L820.672 775.786L820.671 775.802C820.641 775.795 820.61 775.789 820.579 775.782C820.243 775.708 819.852 775.622 819.413 775.525C814.982 774.552 805.777 772.54 801.148 771.589C800.074 771.363 799.07 770.939 798.066 770.514C797.178 770.139 796.291 769.764 795.355 769.526C785.614 766.994 773.685 760.706 770.974 758.064C766.269 753.455 762.801 760.555 767.493 766.32C769.443 768.939 771.766 771.255 774.387 773.193C774.832 773.522 775.286 773.841 775.749 774.149L755.867 779.363C754.832 779.637 753.938 780.291 753.363 781.193L738.007 805.506C737.301 806.456 736.968 807.632 737.072 808.812C737.176 809.992 737.71 811.092 738.572 811.904C738.96 812.322 739.484 812.588 740.049 812.656C740.084 812.66 740.118 812.663 740.154 812.666C740.758 812.712 741.358 812.528 741.833 812.151L739.851 815.453C736.786 820.627 743.678 825.631 747.43 821.8C747.67 821.556 747.896 821.276 748.107 820.957C748.16 820.899 748.206 820.834 748.244 820.764L752.083 825.965C752.083 825.965 753.913 831.043 759.788 827.782C764.659 825.03 781.005 813.032 781.005 813.032C781.005 813.032 803.351 813.538 817.727 811.552C818.158 811.493 818.582 811.431 818.998 811.367C819.001 811.366 819.004 811.366 819.007 811.365L819.007 811.367L909.047 820.104C916.677 821.114 924.436 819.844 931.346 816.453C938.255 813.062 944.007 807.702 947.875 801.048C950.9 795.841 952.677 790.005 953.069 783.997C953.46 777.988 952.455 771.971 950.132 766.416L951.303 765.926C953.702 771.662 954.74 777.875 954.336 784.079C953.932 790.283 952.096 796.31 948.974 801.686C944.979 808.556 939.04 814.091 931.905 817.593C924.777 821.091 916.774 822.404 908.902 821.366L819.035 812.646C811.822 813.742 802.337 814.154 794.672 814.295C790.802 814.366 787.38 814.367 784.925 814.351C783.698 814.343 782.712 814.331 782.032 814.32C781.782 814.317 781.573 814.313 781.409 814.31C781.307 814.384 781.184 814.474 781.042 814.578C780.585 814.912 779.926 815.392 779.121 815.977C777.51 817.147 775.311 818.735 772.96 820.409C768.286 823.738 762.919 827.471 760.413 828.887L760.404 828.892C758.791 829.788 757.356 830.166 756.083 830.143C754.799 830.121 753.772 829.692 752.988 829.126C752.219 828.57 751.702 827.895 751.381 827.377C751.219 827.115 751.101 826.883 751.021 826.712C751.001 826.669 750.983 826.629 750.968 826.593L748.192 822.832C747.274 823.711 746.188 824.215 745.05 824.37C743.509 824.58 741.974 824.141 740.737 823.318C738.261 821.671 736.715 818.255 738.759 814.806L738.762 814.8L739.356 813.81C738.718 813.633 738.134 813.286 737.672 812.8C736.6 811.778 735.937 810.4 735.807 808.924C735.677 807.451 736.086 805.982 736.958 804.789L752.292 780.51C753.039 779.339 754.199 778.491 755.542 778.136L755.545 778.135L772.829 773.602C770.442 771.725 768.31 769.54 766.491 767.099C763.928 763.937 763.445 760.225 764.553 757.778C765.117 756.532 766.165 755.511 767.637 755.338C769.076 755.168 770.535 755.857 771.861 757.155C772.429 757.708 773.577 758.535 775.215 759.527C776.829 760.505 778.844 761.599 781.086 762.695C785.576 764.89 790.91 767.058 795.672 768.296C796.7 768.558 797.66 768.964 798.522 769.329L798.56 769.344C799.581 769.776 800.473 770.149 801.406 770.346C806.424 771.376 816.788 773.648 820.668 774.501L885.488 764.294L867.071 717.728L925.224 703.574Z" fill="#333333"/>
<path d="M748.176 820.957C748.41 821.067 749.717 818.756 752.042 815.165C754.367 811.573 757.876 806.703 761.288 801.172C763.105 798.557 765.072 795.957 766.792 793.92C767.64 793.074 768.762 792.557 769.957 792.462L773.438 791.953C777.689 791.306 780.317 790.797 780.317 790.577C780.317 790.357 777.565 790.439 773.328 790.783L769.819 791.086C768.28 791.152 766.815 791.767 765.691 792.82C763.615 795.175 761.681 797.651 759.899 800.236C756.418 805.877 753.143 810.748 751.024 814.559C748.905 818.37 747.997 820.875 748.176 820.957Z" fill="#3C004F"/>
<path d="M741.833 812.096C742.383 812.481 747.571 803.497 755 793.329C756.858 790.811 758.605 788.197 760.766 787.151C762.963 786.206 765.225 785.42 767.535 784.798C769.084 784.357 770.667 784.048 772.268 783.876C773.396 783.794 774.016 783.876 774.057 783.78C774.098 783.684 773.479 783.34 772.268 783.23C770.588 783.139 768.903 783.277 767.26 783.642C764.824 784.115 762.438 784.815 760.133 785.734C757.243 787.11 755.551 789.861 753.652 792.324C750.424 796.719 747.478 801.315 744.832 806.083C742.782 809.633 741.668 812.027 741.833 812.096Z" fill="#3C004F"/>
<path d="M784.569 801.791C784.569 801.571 782.188 801.626 778.418 801.915L775.323 802.176C774.05 802.194 772.792 802.46 771.621 802.96C770.367 803.625 769.28 804.566 768.443 805.712L765.691 808.89C758.069 817.614 752.18 824.92 752.537 825.209C752.895 825.498 759.334 818.701 766.93 810.074L769.681 806.882C770.38 805.883 771.292 805.051 772.351 804.446C773.353 803.993 774.43 803.727 775.529 803.662L778.597 803.194C782.298 802.506 784.596 802.025 784.569 801.791Z" fill="#3C004F"/>
<path d="M564.774 835.046H756.626L731.86 700.39C731.438 698.073 730.217 695.978 728.409 694.47C726.602 692.961 724.322 692.135 721.968 692.134H549.571C548.089 692.134 546.625 692.461 545.284 693.092C543.944 693.724 542.759 694.643 541.815 695.786C540.871 696.928 540.191 698.265 539.824 699.701C539.457 701.136 539.412 702.635 539.692 704.091L564.774 835.046Z" fill="#E5E5E5"/>
<path d="M756.626 835.046H829.368L829.079 834.826C822.587 829.958 814.75 827.214 806.639 826.97L754.603 825.443L756.626 835.046Z" fill="white"/>
<circle cx="638.796" cy="760.571" r="9.27366" fill="#3C004F"/>
<mask id="mask1_151_218" style="mask-type:alpha" maskUnits="userSpaceOnUse" x="629" y="751" width="20" height="19">
<circle cx="638.796" cy="760.571" r="9.27366" fill="white"/>
</mask>
<g mask="url(#mask1_151_218)">
<rect x="640.763" y="758.577" width="3.70946" height="16.4609" rx="1.85473" transform="rotate(45 640.763 758.577)" fill="url(#paint3_linear_151_218)"/>
<path fill-rule="evenodd" clip-rule="evenodd" d="M637.255 760.367L647.004 750.618C647.24 750.383 647.24 750.001 647.004 749.765C646.769 749.53 646.387 749.53 646.152 749.765L636.403 759.515C636.167 759.75 636.167 760.132 636.403 760.367C636.638 760.603 637.02 760.603 637.255 760.367ZM647.89 748.88C647.165 748.156 645.991 748.156 645.267 748.88L635.517 758.629C634.793 759.354 634.793 760.528 635.517 761.252C636.242 761.977 637.416 761.977 638.14 761.252L647.89 751.503C648.614 750.779 648.614 749.605 647.89 748.88Z" fill="url(#paint4_linear_151_218)"/>
</g>
<rect x="0.77832" y="834.895" width="995.222" height="1.2" fill="#DDDDDD"/>
<path class="light" d="M487.854 491.205L488.275 489.466L512.085 484.199L512.928 491.573L514.561 497.052L516.089 500.476L519.618 507.06L522.831 513.487L524.728 519.966V525.023L523.306 532.661L519.934 539.351L514.877 545.041L509.083 548.254L502.024 550.308H495.071L489.434 549.044L483.587 546.199L479.689 542.512L476.002 537.929L473.842 533.662L472.367 527.71L472.104 523.548L472.683 519.65L473.842 514.751L475.422 511.433L477.161 508.377L479.32 505.111L481.111 502.846L485.167 497.052L487.854 491.205Z" fill="white"/>
<path d="M513.43 475.343C513.011 477.71 512.716 480.097 512.546 482.495C512.282 489.041 513.839 495.533 517.046 501.246C518.922 504.942 521.386 508.827 523.288 513.434C525.378 518.389 525.929 523.859 524.868 529.131C523.719 534.987 520.736 540.326 516.35 544.373C511.566 548.682 505.351 551.059 498.912 551.043C492.492 551.156 486.235 549.014 481.232 544.989C476.905 541.298 473.824 536.359 472.415 530.848C471.005 525.338 471.334 519.527 473.357 514.211C475.252 510.015 477.693 506.088 480.616 502.532C482.966 499.646 484.963 496.489 486.563 493.129C487.704 490.597 488.35 487.869 488.465 485.093C488.474 482.693 487.914 480.325 486.831 478.182C487.247 478.661 487.582 479.203 487.822 479.79C488.601 481.469 489.012 483.296 489.027 485.147C489.02 488.037 488.438 490.896 487.313 493.558C485.743 497.009 483.775 500.263 481.447 503.255C478.628 506.761 476.286 510.625 474.482 514.746C472.624 519.811 472.359 525.322 473.724 530.542C475.089 535.761 478.017 540.437 482.116 543.944C486.882 547.739 492.821 549.756 498.912 549.65C504.997 549.669 510.875 547.437 515.412 543.382C519.578 539.541 522.435 534.492 523.582 528.943C524.634 523.915 524.139 518.685 522.163 513.943C520.368 509.443 517.984 505.532 516.136 501.755C512.939 495.864 511.499 489.18 511.984 482.495C512.106 480.687 512.393 478.894 512.841 477.138C512.977 476.521 513.174 475.92 513.43 475.343Z" fill="#333333"/>
<path d="M503.519 477.915C503.395 479.626 503.153 481.326 502.796 483.004C502.092 487.602 501.627 492.233 501.403 496.88C501.073 503.742 501.378 510.619 502.314 517.425C502.46 518.285 502.851 519.084 503.439 519.729C503.69 520.029 504.014 520.258 504.381 520.394C504.747 520.53 505.143 520.569 505.528 520.506C507.028 520.184 507.832 517.827 507.51 516.113C507.2 514.097 506.186 512.256 504.648 510.918C503.11 509.579 501.147 508.828 499.108 508.799C497.069 508.77 495.085 509.465 493.509 510.76C491.934 512.054 490.868 513.865 490.501 515.871C490.312 516.744 490.433 517.655 490.844 518.447C491.255 519.239 491.929 519.863 492.751 520.211C493.573 520.391 494.433 520.257 495.161 519.835C495.889 519.414 496.434 518.736 496.689 517.934C497.285 516.21 497.602 514.401 497.626 512.577C497.76 510.755 497.814 508.96 497.84 507.219C497.891 504.009 497.757 500.798 497.439 497.603C497.012 492.98 496.242 488.396 495.135 483.888C494.631 482.254 494.228 480.59 493.93 478.906C494.149 479.288 494.329 479.692 494.465 480.111C494.787 480.915 495.189 482.147 495.671 483.727C496.961 488.231 497.857 492.837 498.349 497.496C498.722 500.724 498.919 503.97 498.939 507.219C498.939 508.96 498.939 510.782 498.778 512.577C498.772 514.562 498.446 516.534 497.814 518.416C497.367 519.45 496.632 520.333 495.697 520.961C495.195 521.306 494.619 521.532 494.015 521.62C493.412 521.708 492.796 521.657 492.215 521.47C491.099 521.008 490.171 520.183 489.583 519.128C488.994 518.073 488.78 516.85 488.974 515.657C489.369 513.294 490.595 511.15 492.432 509.611C494.268 508.073 496.595 507.242 498.99 507.268C501.386 507.293 503.694 508.175 505.497 509.752C507.3 511.33 508.48 513.5 508.823 515.871C508.98 517.041 508.832 518.231 508.394 519.327C508.175 519.921 507.818 520.454 507.352 520.882C506.887 521.311 506.326 521.622 505.716 521.791C505.099 521.899 504.466 521.847 503.875 521.641C503.284 521.435 502.756 521.081 502.341 520.613C501.593 519.785 501.092 518.764 500.894 517.666C500.005 510.739 499.799 503.74 500.278 496.772C500.596 492.095 501.214 487.442 502.126 482.843C502.475 481.236 502.769 479.977 503.01 479.147C503.134 478.719 503.305 478.305 503.519 477.915Z" fill="#333333"/>
<path d="M482.706 449.306L361.736 489.942H635.042L521.466 449.306H482.706Z" fill="#333333"/>
<rect x="501.586" y="0.998413" width="1" height="414.744" fill="#999999"/>
<path d="M482.706 449.306L490.206 415.743H515.118L521.466 449.306H482.706Z" fill="#333333"/>
<defs>
<linearGradient id="paint0_linear_151_218" x1="389.108" y1="758.575" x2="389.108" y2="775.036" gradientUnits="userSpaceOnUse">
<stop offset="0.353346" stop-color="#1EF99F"/>
<stop offset="0.722414" stop-color="white" stop-opacity="0"/>
</linearGradient>
<linearGradient id="paint1_linear_151_218" x1="394.38" y1="748.878" x2="382.008" y2="761.25" gradientUnits="userSpaceOnUse">
<stop offset="0.320343" stop-color="white" stop-opacity="0"/>
<stop offset="0.703443" stop-color="#1EF99F"/>
</linearGradient>
<linearGradient id="paint2_linear_151_218" x1="784.266" y1="558.529" x2="784.266" y2="835.005" gradientUnits="userSpaceOnUse">
<stop stop-color="#3C004F"/>
<stop offset="1" stop-color="#3C004F"/>
</linearGradient>
<linearGradient id="paint3_linear_151_218" x1="642.618" y1="758.577" x2="642.618" y2="775.038" gradientUnits="userSpaceOnUse">
<stop offset="0.353346" stop-color="#1EF99F"/>
<stop offset="0.722414" stop-color="white" stop-opacity="0"/>
</linearGradient>
<linearGradient id="paint4_linear_151_218" x1="647.89" y1="748.88" x2="635.517" y2="761.252" gradientUnits="userSpaceOnUse">
<stop offset="0.320343" stop-color="white" stop-opacity="0"/>
<stop offset="0.703443" stop-color="#1EF99F"/>
</linearGradient>
</defs>
</svg>
