<svg fill="none" xmlns="http://www.w3.org/2000/svg">

<symbol id="cart" width="24" height="24" viewBox="0 0 24 24" fill="none" xmlns="http://www.w3.org/2000/svg">
<path d="M7.19881 23.0569C8.2592 23.0569 9.11881 22.1973 9.11881 21.1369C9.11881 20.0765 8.2592 19.2169 7.19881 19.2169C6.13842 19.2169 5.27881 20.0765 5.27881 21.1369C5.27881 22.1973 6.13842 23.0569 7.19881 23.0569Z" fill="#3C004F"/>
<path d="M16.7989 23.0569C17.8593 23.0569 18.7189 22.1973 18.7189 21.1369C18.7189 20.0765 17.8593 19.2169 16.7989 19.2169C15.7385 19.2169 14.8789 20.0765 14.8789 21.1369C14.8789 22.1973 15.7385 23.0569 16.7989 23.0569Z" fill="#3C004F"/>
<path d="M6.41025 15.6877L4.72363 6.59011L20.1077 6.02789L22.2032 8.02118L18.83 15.6877H6.41025Z" fill="#1EF99F"/>
<path d="M22.5436 5.79413C21.8679 5.14794 20.9632 4.79644 20.0284 4.81685H5.90684L5.65436 2.83733C5.56269 2.06039 5.18913 1.3441 4.60451 0.824241C4.01989 0.304383 3.26485 0.0170971 2.48252 0.0168457L1.919 0.0168457C1.53709 0.0168457 1.17082 0.16856 0.90077 0.438612C0.630718 0.708664 0.479004 1.07493 0.479004 1.45685H0.479004C0.479004 1.83876 0.630718 2.20503 0.90077 2.47508C1.17082 2.74513 1.53709 2.89685 1.919 2.89685H2.48252C2.56106 2.89769 2.6365 2.92758 2.69429 2.98077C2.75208 3.03395 2.78813 3.10665 2.79548 3.18485L4.23548 14.4735C4.32631 15.251 4.69952 15.9681 5.28425 16.4886C5.86898 17.0091 6.6245 17.2967 7.40732 17.2968H17.1244C18.2803 17.2962 19.4041 16.9162 20.3232 16.2152C21.2423 15.5143 21.906 14.5311 22.2124 13.4165L23.4086 9.06677C23.5681 8.49361 23.572 7.88832 23.42 7.31314C23.2679 6.73796 22.9655 6.21365 22.5436 5.79413ZM19.439 12.6533C19.2984 13.1595 18.9962 13.6059 18.5783 13.9243C18.1604 14.2427 17.6498 14.4157 17.1244 14.4168H7.40732C7.32883 14.4162 7.25339 14.3863 7.19571 14.3331C7.13803 14.2799 7.10224 14.207 7.09532 14.1288L6.27452 7.69685H20.1724C20.2466 7.69629 20.3199 7.71292 20.3865 7.74543C20.4531 7.77794 20.5113 7.82545 20.5565 7.88423C20.6017 7.94301 20.6327 8.01146 20.647 8.08421C20.6613 8.15697 20.6586 8.23205 20.639 8.30357L19.439 12.6533Z" fill="#3C004F"/>
</symbol>

<symbol id="shop" width="24" height="24" viewBox="0 0 24 24" fill="none">
<path d="M7.69488 1.37891L3.86859 2.72935L1.69287 11.0571L3.86859 13.5329L6.71953 13.0077L7.69488 10.0068L10.9209 13.0077L13.3217 13.5329L14.9723 10.5319H16.3977L17.6732 13.0077L20.7492 13.5329L22.0246 10.5319L20.7492 5.13014L18.2733 1.37891H7.69488Z" fill="#1EF99F"/>
<path d="M23.519 9.70424L22.32 4.1516C22.0649 2.97603 21.4137 1.92378 20.4754 1.17107C19.5371 0.418353 18.3686 0.0108782 17.1657 0.0168806H6.83228C5.62938 0.0108782 4.46093 0.418353 3.52262 1.17107C2.5843 1.92378 1.93309 2.97603 1.67804 4.1516L0.513564 9.39224L0.479004 10.621C0.483344 11.5843 0.822755 12.5159 1.439 13.2562V17.7769C1.44053 19.1768 1.9973 20.5189 2.98716 21.5087C3.97703 22.4986 5.31913 23.0554 6.719 23.0569H17.279C18.6789 23.0554 20.021 22.4986 21.0108 21.5087C22.0007 20.5189 22.5575 19.1768 22.559 17.7769V13.2562C23.1752 12.5159 23.5147 11.5843 23.519 10.621V9.70424ZM3.359 9.86264L4.48892 4.77464C4.60772 4.2418 4.90462 3.76537 5.33065 3.42399C5.75667 3.08262 6.28636 2.89668 6.83228 2.89688H7.199V4.33688C7.199 4.71879 7.35072 5.08506 7.62077 5.35511C7.89082 5.62517 8.25709 5.77688 8.639 5.77688C9.02091 5.77688 9.38718 5.62517 9.65724 5.35511C9.92729 5.08506 10.079 4.71879 10.079 4.33688V2.89688H13.919V4.33688C13.919 4.71879 14.0707 5.08506 14.3408 5.35511C14.6108 5.62517 14.9771 5.77688 15.359 5.77688C15.7409 5.77688 16.1072 5.62517 16.3772 5.35511C16.6473 5.08506 16.799 4.71879 16.799 4.33688V2.89688H17.1657C17.7119 2.89678 18.2418 3.08299 18.6679 3.42474C19.0939 3.7665 19.3907 4.24336 19.5091 4.77656L20.639 9.86264V10.621C20.6298 10.9621 20.4878 11.286 20.2433 11.524C19.9989 11.7619 19.6712 11.895 19.33 11.895C18.9889 11.895 18.6612 11.7619 18.4167 11.524C18.1723 11.286 18.0303 10.9621 18.0211 10.621C18.0274 10.3076 17.9711 9.99605 17.8556 9.70463C17.74 9.41321 17.5674 9.14778 17.348 8.92387C17.1286 8.69996 16.8667 8.52209 16.5776 8.40066C16.2886 8.27923 15.9783 8.21668 15.6648 8.21668C15.3513 8.21668 15.0409 8.27923 14.7519 8.40066C14.4628 8.52209 14.201 8.69996 13.9815 8.92387C13.7621 9.14778 13.5895 9.41321 13.474 9.70463C13.3584 9.99605 13.3021 10.3076 13.3084 10.621C13.3084 10.9683 13.1705 11.3014 12.9249 11.547C12.6793 11.7925 12.3463 11.9305 11.999 11.9305C11.6517 11.9305 11.3187 11.7925 11.0731 11.547C10.8275 11.3014 10.6896 10.9683 10.6896 10.621C10.6959 10.3076 10.6396 9.99605 10.524 9.70463C10.4085 9.41321 10.2359 9.14778 10.0165 8.92387C9.79705 8.69996 9.53516 8.52209 9.24613 8.40066C8.9571 8.27923 8.64675 8.21668 8.33324 8.21668C8.01974 8.21668 7.70939 8.27923 7.42036 8.40066C7.13133 8.52209 6.86943 8.69996 6.65 8.92387C6.43057 9.14778 6.25802 9.41321 6.14244 9.70463C6.02687 9.99605 5.9706 10.3076 5.97692 10.621C5.96769 10.9621 5.82573 11.286 5.58126 11.524C5.33679 11.7619 5.00911 11.895 4.66796 11.895C4.32682 11.895 3.99914 11.7619 3.75467 11.524C3.5102 11.286 3.36824 10.9621 3.359 10.621V9.86264ZM17.279 20.1769H6.719C6.08248 20.1769 5.47203 19.924 5.02195 19.4739C4.57186 19.0239 4.319 18.4134 4.319 17.7769V14.774C4.43612 14.7846 4.54844 14.8095 4.66844 14.8095C5.41682 14.809 6.15141 14.6081 6.79594 14.2278C7.44047 13.8474 7.97144 13.3015 8.33372 12.6466C8.69567 13.3017 9.22658 13.8479 9.87119 14.2282C10.5158 14.6085 11.2506 14.8091 11.999 14.8091C12.7474 14.8091 13.4822 14.6085 14.1268 14.2282C14.7714 13.8479 15.3023 13.3017 15.6643 12.6466C16.0266 13.3015 16.5575 13.8474 17.2021 14.2278C17.8466 14.6081 18.5812 14.809 19.3296 14.8095C19.4496 14.8095 19.5619 14.7846 19.679 14.774V17.7769C19.679 18.0921 19.6169 18.4041 19.4963 18.6953C19.3757 18.9865 19.1989 19.2511 18.9761 19.4739C18.7532 19.6968 18.4886 19.8736 18.1974 19.9942C17.9063 20.1148 17.5942 20.1769 17.279 20.1769Z" fill="#3C004F"/>
</symbol>

<symbol id="food" width="24" height="24" viewBox="0 0 24 24" fill="none">
<path d="M15.5624 6.83462L11.0563 6.11935H2.33003L1.75781 9.98179L3.18832 19.5663L5.69176 21.8552H11.0563L10.484 18.4934V13.9157L11.7 10.6255H15.1333L15.5624 6.83462Z" fill="#1EF99F"/>
<path d="M18.2388 9.61686H16.5991L16.7355 8.58294C16.8272 8.14053 16.8202 7.68333 16.715 7.24393C16.6098 6.80453 16.409 6.39375 16.1268 6.04086C15.8208 5.65605 15.4313 5.34588 14.9877 5.13383C14.5441 4.92177 14.0581 4.81338 13.5665 4.81686H11.9911L12.2177 3.30582C12.2347 3.19217 12.2919 3.0884 12.3789 3.01335C12.466 2.93831 12.577 2.89697 12.6919 2.89686H15.3588C15.7407 2.89686 16.107 2.74515 16.3771 2.47509C16.6471 2.20504 16.7988 1.83877 16.7988 1.45686C16.7988 1.07495 16.6471 0.708678 16.3771 0.438626C16.107 0.168574 15.7407 0.0168598 15.3588 0.0168598H12.6919C11.8862 0.0126988 11.1061 0.299973 10.4955 0.825718C9.88489 1.35146 9.48494 2.08023 9.36938 2.87766L9.0785 4.81686H3.71114C3.21975 4.81311 2.73393 4.92108 2.29038 5.13263C1.84684 5.34417 1.45717 5.65375 1.15082 6.03798C0.868949 6.39064 0.668273 6.8011 0.563076 7.24015C0.457878 7.67919 0.450744 8.13602 0.542181 8.57814L1.88618 18.8156C2.06395 20.0061 2.6672 21.0919 3.58419 21.8717C4.50117 22.6516 5.66974 23.0726 6.87338 23.0569H18.2388C19.6387 23.0553 20.9808 22.4986 21.9707 21.5087C22.9605 20.5188 23.5173 19.1767 23.5188 17.7769V14.8969C23.5173 13.497 22.9605 12.1549 21.9707 11.165C20.9808 10.1752 19.6387 9.61838 18.2388 9.61686ZM20.5899 14.4169H11.5659C11.6765 13.8746 11.9712 13.3873 12.4 13.0374C12.8288 12.6875 13.3654 12.4965 13.9188 12.4969H18.2388C18.7919 12.497 19.328 12.6881 19.7564 13.038C20.1848 13.3878 20.4792 13.8749 20.5899 14.4169ZM13.5665 7.69686C13.6236 7.6944 13.6805 7.70517 13.7328 7.72831C13.7851 7.75146 13.8313 7.78636 13.8679 7.8303C13.9351 7.91382 13.8939 8.10006 13.8871 8.1471L13.6942 9.61686H11.2711L11.5591 7.69686H13.5665ZM3.4097 7.8303C3.44638 7.78647 3.49264 7.75165 3.5449 7.72852C3.59716 7.70538 3.65403 7.69455 3.71114 7.69686H8.6465L8.3585 9.61686H3.58346L3.39146 8.14422C3.38378 8.09718 3.3425 7.91382 3.4097 7.8303ZM4.74506 18.4402L3.96266 12.4969H9.22154C8.83902 13.2391 8.63924 14.0619 8.63882 14.8969V17.7769C8.63924 18.6118 8.83902 19.4346 9.22154 20.1769H6.87338C6.36883 20.1927 5.87554 20.0257 5.48442 19.7066C5.0933 19.3874 4.83072 18.9377 4.74506 18.4402ZM18.2388 20.1769H13.9188C13.2823 20.1769 12.6719 19.924 12.2218 19.4739C11.7717 19.0238 11.5188 18.4134 11.5188 17.7769V17.2969H13.483L16.0001 18.9749C16.2366 19.1326 16.5145 19.2167 16.7988 19.2167C17.0831 19.2167 17.361 19.1326 17.5975 18.9749L20.1147 17.2969H20.6388V17.7769C20.6388 18.4134 20.386 19.0238 19.9359 19.4739C19.4858 19.924 18.8753 20.1769 18.2388 20.1769Z" fill="#3C004F"/>
</symbol>

<symbol id="mobile" width="16" height="24" viewBox="0 0 16 24" fill="none">
<rect x="2.16406" y="2.21851" width="11.5089" height="15.9953" fill="#1EF99F"/>
<path d="M10.9375 10.2994C10.7093 9.55846 10.1624 9.15815 9.44425 9.19853C9.01234 9.22311 8.69893 9.47682 8.60588 9.8982C8.57515 10.0369 8.56989 10.1861 8.58042 10.3284C8.62256 10.9069 8.96405 11.2238 9.54345 11.2326C9.6763 11.2354 9.78951 11.3544 9.75443 11.4825C9.75376 11.4849 9.75308 11.4874 9.75239 11.4898C9.55311 12.1956 9.07818 12.674 8.46103 13.0261C8.26702 13.1376 8.05106 13.17 7.82545 13.156C7.3549 13.1262 7.1091 12.8707 7.10822 12.3958C7.10734 11.7514 7.10822 11.1079 7.10822 10.4636C7.10822 10.3739 7.18093 10.3011 7.27063 10.3011H7.62972C7.88691 10.3011 8.00394 10.0043 7.84125 9.80515C7.66831 9.5927 7.47254 9.46629 7.18899 9.52423C7.14325 9.53294 7.10822 9.48144 7.10822 9.43488V9.34338C7.10646 8.80963 7.11612 8.27501 7.1012 7.74126C7.09856 7.65347 7.09154 7.56744 7.0775 7.48316C7.03185 7.19434 6.92123 6.92659 6.72547 6.69044C6.5894 6.52628 6.41733 6.41742 6.20752 6.38757C6.14958 6.37967 6.09076 6.37616 6.0337 6.37616H5.82121C5.49411 6.37616 5.20498 6.60827 5.20498 6.93537C5.20498 7.25926 5.48962 7.49223 5.81335 7.50248L5.81797 7.50297C5.87506 7.50907 5.93409 7.51095 5.98805 7.53057C5.99068 7.53145 6.05214 7.55164 6.09691 7.59114C6.22332 7.7 6.29882 7.85802 6.2997 8.06783C6.30057 8.40142 6.2997 8.73677 6.2997 9.07124V9.0783C6.2997 9.32797 6.0973 9.53037 5.84762 9.53037H5.74954C5.38882 9.53037 5.19945 9.96687 5.45606 10.2204C5.50171 10.266 5.58159 10.2959 5.64831 10.2994C5.80424 10.3058 5.96063 10.3047 6.12236 10.3037C6.22078 10.303 6.30057 10.3827 6.30057 10.4811C6.30057 11.1896 6.30935 11.8989 6.29618 12.6073C6.29092 12.8821 6.38485 13.1007 6.55428 13.3009C7.13895 13.9909 7.86232 14.22 8.72615 13.9391C9.78662 13.5976 10.4643 12.8461 10.8752 11.8409C11.0806 11.3397 11.0973 10.8173 10.9375 10.2994Z" fill="#3C004F"/>
<path d="M10.3988 0.0168762H5.59885C4.19897 0.0184009 2.85687 0.575175 1.86701 1.56504C0.877146 2.5549 0.320372 3.897 0.318848 5.29688V17.7769C0.320372 19.1767 0.877146 20.5189 1.86701 21.5087C2.85687 22.4986 4.19897 23.0553 5.59885 23.0569H10.3988C11.7987 23.0553 13.1408 22.4986 14.1307 21.5087C15.1205 20.5189 15.6773 19.1767 15.6788 17.7769V5.29688C15.6773 3.897 15.1205 2.5549 14.1307 1.56504C13.1408 0.575175 11.7987 0.0184009 10.3988 0.0168762V0.0168762ZM5.59885 2.89688H10.3988C11.0354 2.89688 11.6458 3.14973 12.0959 3.59982C12.546 4.04991 12.7988 4.66036 12.7988 5.29688V17.2969H3.19885V5.29688C3.19885 4.66036 3.4517 4.04991 3.90179 3.59982C4.35188 3.14973 4.96233 2.89688 5.59885 2.89688ZM7.99884 21.1369C7.74424 21.1369 7.50006 21.0357 7.32002 20.8557C7.13999 20.6757 7.03884 20.4315 7.03884 20.1769C7.03884 19.9223 7.13999 19.6781 7.32002 19.4981C7.50006 19.318 7.74424 19.2169 7.99884 19.2169C8.25345 19.2169 8.49763 19.318 8.67767 19.4981C8.8577 19.6781 8.95884 19.9223 8.95884 20.1769C8.95884 20.4315 8.8577 20.6757 8.67767 20.8557C8.49763 21.0357 8.25345 21.1369 7.99884 21.1369Z" fill="#3C004F"/>
</symbol>

<symbol id="headphone" width="24" height="22" viewBox="0 0 24 22" fill="none">
<path d="M2.35706 13.5325L4.88878 12.0135H6.91408L6.28116 19.7351H4.12922L1.72412 16.5705L2.35706 13.5325Z" fill="#1EF99F"/>
<path d="M17.3344 13.6802L19.5196 12.312H21.2677L20.7214 19.267H18.864L16.7881 16.4166L17.3344 13.6802Z" fill="#1EF99F"/>
<path d="M20.639 11.1097V9.6111C20.639 7.31963 19.7287 5.12201 18.1084 3.5017C16.4881 1.88138 14.2905 0.9711 11.999 0.9711C9.70753 0.9711 7.50991 1.88138 5.8896 3.5017C4.26929 5.12201 3.359 7.31963 3.359 9.6111V11.1097C2.49846 11.525 1.77208 12.1741 1.26282 12.9826C0.753558 13.7911 0.481946 14.7266 0.479004 15.6821L0.479004 16.0316C0.480528 17.3851 1.01889 18.6828 1.97599 19.6399C2.93308 20.597 4.23075 21.1353 5.58428 21.1369H5.759C6.39552 21.1369 7.00597 20.884 7.45606 20.4339C7.90615 19.9838 8.159 19.3734 8.159 18.7369V12.9769C8.15889 12.4238 7.96774 11.8877 7.61789 11.4593C7.26803 11.0309 6.78094 10.7364 6.239 10.6258V9.6111C6.239 8.08345 6.84586 6.61838 7.92607 5.53817C9.00628 4.45796 10.4714 3.8511 11.999 3.8511C13.5266 3.8511 14.9917 4.45796 16.0719 5.53817C17.1521 6.61838 17.759 8.08345 17.759 9.6111V10.6258C17.2171 10.7364 16.73 11.0309 16.3801 11.4593C16.0303 11.8877 15.8391 12.4238 15.839 12.9769V18.7369C15.839 19.3734 16.0919 19.9838 16.5419 20.4339C16.992 20.884 17.6025 21.1369 18.239 21.1369H18.4137C19.7673 21.1353 21.0649 20.597 22.022 19.6399C22.9791 18.6828 23.5175 17.3851 23.519 16.0316V15.6821C23.5161 14.7266 23.2444 13.7911 22.7352 12.9826C22.2259 12.1741 21.4995 11.525 20.639 11.1097ZM5.279 18.2357C4.7464 18.1614 4.25866 17.8969 3.90578 17.4911C3.5529 17.0853 3.3587 16.5655 3.359 16.0277V15.6783C3.3587 15.1405 3.5529 14.6208 3.90578 14.215C4.25866 13.8092 4.7464 13.5447 5.279 13.4703V18.2357ZM20.639 16.0277C20.6393 16.5655 20.4451 17.0853 20.0922 17.4911C19.7393 17.8969 19.2516 18.1614 18.719 18.2357V13.478C19.2516 13.5524 19.7393 13.8168 20.0922 14.2227C20.4451 14.6285 20.6393 15.1482 20.639 15.686V16.0277Z" fill="#3C004F"/>
</symbol>

<symbol id="users" width="24" height="24" viewBox="0 0 24 24" fill="none">
<circle cx="7.69314" cy="8.01607" r="2.27614" fill="#1EF99F"/>
<circle cx="17.1648" cy="4.27144" r="2.27614" fill="#1EF99F"/>
<path d="M7.679 12.4968C6.82459 12.4968 5.98936 12.2435 5.27894 11.7688C4.56852 11.2941 4.01482 10.6194 3.68784 9.83004C3.36087 9.04066 3.27532 8.17206 3.44201 7.33406C3.6087 6.49606 4.02014 5.72631 4.6243 5.12215C5.22847 4.51798 5.99822 4.10654 6.83621 3.93986C7.67421 3.77317 8.54282 3.85872 9.3322 4.18569C10.1216 4.51266 10.7963 5.06636 11.271 5.77678C11.7456 6.4872 11.999 7.32243 11.999 8.17685C11.9977 9.32219 11.5422 10.4203 10.7323 11.2301C9.92242 12.04 8.82435 12.4956 7.679 12.4968ZM7.679 6.73685C7.3942 6.73685 7.11579 6.8213 6.87898 6.97953C6.64218 7.13776 6.45761 7.36266 6.34862 7.62578C6.23963 7.88891 6.21111 8.17844 6.26667 8.45778C6.32224 8.73711 6.45938 8.99369 6.66077 9.19508C6.86216 9.39647 7.11874 9.53362 7.39807 9.58918C7.67741 9.64474 7.96694 9.61622 8.23007 9.50723C8.49319 9.39824 8.71809 9.21367 8.87632 8.97687C9.03455 8.74006 9.119 8.46165 9.119 8.17685C9.119 7.79494 8.96729 7.42867 8.69724 7.15861C8.42719 6.88856 8.06092 6.73685 7.679 6.73685ZM14.879 21.6168C14.879 19.7073 14.1204 17.8759 12.7702 16.5257C11.4199 15.1754 9.58856 14.4168 7.679 14.4168C5.76945 14.4168 3.9381 15.1754 2.58784 16.5257C1.23757 17.8759 0.479004 19.7073 0.479004 21.6168C0.479004 21.9988 0.630718 22.365 0.90077 22.6351C1.17082 22.9051 1.53709 23.0568 1.919 23.0568C2.30092 23.0568 2.66719 22.9051 2.93724 22.6351C3.20729 22.365 3.359 21.9988 3.359 21.6168C3.359 20.4711 3.81415 19.3723 4.6243 18.5621C5.43446 17.752 6.53327 17.2968 7.679 17.2968C8.82474 17.2968 9.92355 17.752 10.7337 18.5621C11.5439 19.3723 11.999 20.4711 11.999 21.6168C11.999 21.9988 12.1507 22.365 12.4208 22.6351C12.6908 22.9051 13.0571 23.0568 13.439 23.0568C13.8209 23.0568 14.1872 22.9051 14.4572 22.6351C14.7273 22.365 14.879 21.9988 14.879 21.6168ZM23.519 17.2968C23.5191 16.0223 23.1568 14.7741 22.4743 13.6977C21.7918 12.6213 20.8173 11.7612 19.6644 11.2178C18.5116 10.6743 17.228 10.4699 15.9634 10.6284C14.6988 10.7869 13.5053 11.3017 12.5222 12.1128C12.3763 12.2332 12.2556 12.3812 12.1669 12.5482C12.0783 12.7153 12.0233 12.8982 12.0053 13.0864C11.9873 13.2747 12.0066 13.4647 12.062 13.6455C12.1174 13.8264 12.2079 13.9945 12.3283 14.1404C12.4487 14.2862 12.5966 14.4069 12.7637 14.4956C12.9307 14.5843 13.1136 14.6392 13.3019 14.6572C13.4902 14.6752 13.6801 14.656 13.861 14.6006C14.0418 14.5452 14.2099 14.4547 14.3558 14.3343C15.0416 13.7635 15.9067 13.4529 16.799 13.4568C17.8174 13.4568 18.7942 13.8614 19.5143 14.5816C20.2344 15.3017 20.639 16.2784 20.639 17.2968C20.639 17.6788 20.7907 18.045 21.0608 18.3151C21.3308 18.5851 21.6971 18.7368 22.079 18.7368C22.4609 18.7368 22.8272 18.5851 23.0972 18.3151C23.3673 18.045 23.519 17.6788 23.519 17.2968ZM17.279 8.65685C16.4246 8.65685 15.5894 8.40348 14.8789 7.9288C14.1685 7.45411 13.6148 6.77942 13.2878 5.99004C12.9609 5.20066 12.8753 4.33206 13.042 3.49406C13.2087 2.65606 13.6201 1.88631 14.2243 1.28215C14.8285 0.677984 15.5982 0.266543 16.4362 0.0998552C17.2742 -0.0668329 18.1428 0.0187175 18.9322 0.345688C19.7216 0.672659 20.3963 1.22636 20.871 1.93678C21.3456 2.6472 21.599 3.48243 21.599 4.33685C21.5977 5.48219 21.1422 6.58026 20.3323 7.39015C19.5224 8.20003 18.4244 8.65558 17.279 8.65685ZM17.279 2.89685C16.9942 2.89685 16.7158 2.9813 16.479 3.13953C16.2422 3.29776 16.0576 3.52266 15.9486 3.78578C15.8396 4.04891 15.8111 4.33844 15.8667 4.61778C15.9222 4.89711 16.0594 5.15369 16.2608 5.35508C16.4622 5.55647 16.7187 5.69362 16.9981 5.74918C17.2774 5.80474 17.5669 5.77622 17.8301 5.66723C18.0932 5.55824 18.3181 5.37368 18.4763 5.13687C18.6346 4.90006 18.719 4.62165 18.719 4.33685C18.719 3.95494 18.5673 3.58867 18.2972 3.31861C18.0272 3.04856 17.6609 2.89685 17.279 2.89685Z" fill="#3C004F"/>
</symbol>

<symbol id="job" width="24" height="24" viewBox="0 0 24 24" fill="none">
<rect x="2.82227" y="11.5369" width="18.4622" height="8.98965" fill="#1EF99F"/>
<path d="M18.239 2.89685H17.6227C17.4105 2.07495 16.9319 1.34652 16.2618 0.825452C15.5917 0.30438 14.7679 0.0200269 13.919 0.0168457L10.079 0.0168457C9.23016 0.0200269 8.40629 0.30438 7.73619 0.825452C7.06609 1.34652 6.58753 2.07495 6.37532 2.89685H5.759C4.35913 2.89837 3.01703 3.45514 2.02716 4.44501C1.0373 5.43487 0.480529 6.77697 0.479004 8.17685L0.479004 17.7768C0.480529 19.1767 1.0373 20.5188 2.02716 21.5087C3.01703 22.4985 4.35913 23.0553 5.759 23.0568H18.239C19.6388 23.0551 20.9808 22.4982 21.9706 21.5084C22.9604 20.5186 23.5172 19.1766 23.519 17.7768V8.17685C23.5172 6.77705 22.9604 5.43509 21.9706 4.44529C20.9808 3.45548 19.6388 2.89862 18.239 2.89685ZM5.759 5.77685H18.239C18.8755 5.77685 19.486 6.0297 19.9361 6.47979C20.3861 6.92988 20.639 7.54033 20.639 8.17685V10.5768H3.359V8.17685C3.359 7.54033 3.61186 6.92988 4.06195 6.47979C4.51203 6.0297 5.12248 5.77685 5.759 5.77685ZM18.239 20.1768H5.759C5.12248 20.1768 4.51203 19.924 4.06195 19.4739C3.61186 19.0238 3.359 18.4134 3.359 17.7768V13.4568H10.079C10.079 13.9661 10.2813 14.4544 10.6414 14.8145C11.0014 15.1746 11.4898 15.3768 11.999 15.3768C12.5082 15.3768 12.9966 15.1746 13.3566 14.8145C13.7167 14.4544 13.919 13.9661 13.919 13.4568H20.639V17.7768C20.639 18.4134 20.3861 19.0238 19.9361 19.4739C19.486 19.924 18.8755 20.1768 18.239 20.1768Z" fill="#3C004F"/>
</symbol>
 
<symbol id="book" width="20" height="24" viewBox="0 0 20 24" fill="none">
<rect x="2.65332" y="2.41156" width="4.95948" height="12.806" fill="#1EF99F"/>
<path d="M14.3189 0.0168457H6.63893C4.9846 0.018878 3.39861 0.676957 2.22882 1.84674C1.05904 3.01653 0.400958 4.60252 0.398926 6.25684V18.7368C0.400196 19.8822 0.855746 20.9803 1.66563 21.7901C2.47551 22.6 3.57358 23.0556 4.71893 23.0568H14.3189C15.7187 23.0551 17.0607 22.4982 18.0505 21.5084C19.0403 20.5186 19.5972 19.1766 19.5989 17.7768V5.29684C19.5972 3.89705 19.0403 2.55509 18.0505 1.56529C17.0607 0.575479 15.7187 0.0186239 14.3189 0.0168457V0.0168457ZM6.15893 2.94581V14.4168H4.71893C4.22725 14.4215 3.74008 14.5112 3.27893 14.6818V6.25684C3.28121 5.45104 3.5735 4.673 4.10234 4.06501C4.63118 3.45702 5.36122 3.05973 6.15893 2.94581ZM16.7189 17.7768C16.7189 18.4134 16.4661 19.0238 16.016 19.4739C15.5659 19.924 14.9554 20.1768 14.3189 20.1768H4.71893C4.33701 20.1768 3.97074 20.0251 3.70069 19.7551C3.43064 19.485 3.27893 19.1188 3.27893 18.7368C3.27893 18.3549 3.43064 17.9887 3.70069 17.7186C3.97074 17.4486 4.33701 17.2968 4.71893 17.2968H16.7189V17.7768ZM9.03893 14.4168V2.89685H14.3189C14.9554 2.89685 15.5659 3.1497 16.016 3.59979C16.4661 4.04988 16.7189 4.66033 16.7189 5.29684V14.4168H9.03893Z" fill="#3C004F"/>
</symbol>

<svg id="health" width="24" height="24" viewBox="0 0 24 24" fill="none">
<rect x="3.17725" y="6.72839" width="17.8335" height="14.5501" fill="#1EF99F"/>
<path d="M18.239 4.81685H16.799V3.37685C16.799 2.48572 16.445 1.63109 15.8149 1.00097C15.1848 0.370845 14.3301 0.0168457 13.439 0.0168457H10.559C9.66788 0.0168457 8.81325 0.370845 8.18313 1.00097C7.553 1.63109 7.199 2.48572 7.199 3.37685V4.81685H5.759C4.35913 4.81837 3.01703 5.37514 2.02716 6.36501C1.0373 7.35487 0.480529 8.69697 0.479004 10.0968L0.479004 17.7768C0.480529 19.1767 1.0373 20.5188 2.02716 21.5087C3.01703 22.4985 4.35913 23.0553 5.759 23.0568H18.239C19.6389 23.0553 20.981 22.4985 21.9708 21.5087C22.9607 20.5188 23.5175 19.1767 23.519 17.7768V10.0968C23.5175 8.69697 22.9607 7.35487 21.9708 6.36501C20.981 5.37514 19.6389 4.81837 18.239 4.81685ZM10.079 3.37685C10.079 3.24954 10.1296 3.12745 10.2196 3.03743C10.3096 2.94742 10.4317 2.89685 10.559 2.89685H13.439C13.5663 2.89685 13.6884 2.94742 13.7784 3.03743C13.8684 3.12745 13.919 3.24954 13.919 3.37685V4.81685H10.079V3.37685ZM20.639 17.7768C20.639 18.4134 20.3861 19.0238 19.9361 19.4739C19.486 19.924 18.8755 20.1768 18.239 20.1768H5.759C5.12248 20.1768 4.51203 19.924 4.06195 19.4739C3.61186 19.0238 3.359 18.4134 3.359 17.7768V10.0968C3.359 9.46033 3.61186 8.84988 4.06195 8.39979C4.51203 7.9497 5.12248 7.69685 5.759 7.69685H18.239C18.8755 7.69685 19.486 7.9497 19.9361 8.39979C20.3861 8.84988 20.639 9.46033 20.639 10.0968V17.7768ZM16.319 13.9368C16.319 14.3188 16.1673 14.685 15.8972 14.9551C15.6272 15.2251 15.2609 15.3768 14.879 15.3768H13.439V16.8168C13.439 17.1988 13.2873 17.565 13.0172 17.8351C12.7472 18.1051 12.3809 18.2568 11.999 18.2568C11.6171 18.2568 11.2508 18.1051 10.9808 17.8351C10.7107 17.565 10.559 17.1988 10.559 16.8168V15.3768H9.119C8.73709 15.3768 8.37082 15.2251 8.10077 14.9551C7.83072 14.685 7.679 14.3188 7.679 13.9368C7.679 13.5549 7.83072 13.1887 8.10077 12.9186C8.37082 12.6486 8.73709 12.4968 9.119 12.4968H10.559V11.0568C10.559 10.6749 10.7107 10.3087 10.9808 10.0386C11.2508 9.76856 11.6171 9.61685 11.999 9.61685C12.3809 9.61685 12.7472 9.76856 13.0172 10.0386C13.2873 10.3087 13.439 10.6749 13.439 11.0568V12.4968H14.879C15.2609 12.4968 15.6272 12.6486 15.8972 12.9186C16.1673 13.1887 16.319 13.5549 16.319 13.9368Z" fill="#3C004F"/>
</svg>

<symbol id="data" width="24" height="24" viewBox="0 0 24 24" fill="none">
<rect x="3.07568" y="8.22583" width="17.897" height="6.4709" fill="#1EF99F"/>
<path d="M22.1387 8.17685C22.8026 7.50334 23.2526 6.6485 23.4318 5.7199C23.6111 4.79129 23.5117 3.8304 23.1462 2.95814C22.7807 2.08588 22.1653 1.34121 21.3776 0.817843C20.5898 0.294475 19.6649 0.0157881 18.7192 0.0168487H5.27915C4.3334 0.0157881 3.40846 0.294475 2.62071 0.817843C1.83297 1.34121 1.21762 2.08588 0.852091 2.95814C0.486562 3.8304 0.387185 4.79129 0.566466 5.7199C0.745746 6.6485 1.19567 7.50334 1.85963 8.17685C0.975095 9.07146 0.479004 10.2788 0.479004 11.5368C0.479004 12.7949 0.975095 14.0022 1.85963 14.8968C1.19567 15.5704 0.745746 16.4252 0.566466 17.3538C0.387185 18.2824 0.486562 19.2433 0.852091 20.1156C1.21762 20.9878 1.83297 21.7325 2.62071 22.2558C3.40846 22.7792 4.3334 23.0579 5.27915 23.0568H18.7192C19.6649 23.0579 20.5898 22.7792 21.3776 22.2558C22.1653 21.7325 22.7807 20.9878 23.1462 20.1156C23.5117 19.2433 23.6111 18.2824 23.4318 17.3538C23.2526 16.4252 22.8026 15.5704 22.1387 14.8968C23.0232 14.0022 23.5193 12.7949 23.5193 11.5368C23.5193 10.2788 23.0232 9.07146 22.1387 8.17685ZM5.27915 13.4568C4.76994 13.4568 4.28158 13.2546 3.92151 12.8945C3.56144 12.5344 3.35915 12.0461 3.35915 11.5368C3.35915 11.0276 3.56144 10.5393 3.92151 10.1792C4.28158 9.81913 4.76994 9.61685 5.27915 9.61685V10.0968C5.27915 10.4788 5.43087 10.845 5.70092 11.1151C5.97097 11.3851 6.33724 11.5368 6.71915 11.5368C7.10107 11.5368 7.46734 11.3851 7.73739 11.1151C8.00744 10.845 8.15915 10.4788 8.15915 10.0968V9.61685H10.0792V10.0968C10.0792 10.4788 10.2309 10.845 10.5009 11.1151C10.771 11.3851 11.1372 11.5368 11.5192 11.5368C11.9011 11.5368 12.2673 11.3851 12.5374 11.1151C12.8074 10.845 12.9592 10.4788 12.9592 10.0968V9.61685H18.7192C19.2284 9.61685 19.7167 9.81913 20.0768 10.1792C20.4369 10.5393 20.6392 11.0276 20.6392 11.5368C20.6392 12.0461 20.4369 12.5344 20.0768 12.8945C19.7167 13.2546 19.2284 13.4568 18.7192 13.4568H5.27915ZM5.27915 2.89685V3.37685C5.27915 3.75876 5.43087 4.12503 5.70092 4.39508C5.97097 4.66513 6.33724 4.81685 6.71915 4.81685C7.10107 4.81685 7.46734 4.66513 7.73739 4.39508C8.00744 4.12503 8.15915 3.75876 8.15915 3.37685V2.89685H10.0792V3.37685C10.0792 3.75876 10.2309 4.12503 10.5009 4.39508C10.771 4.66513 11.1372 4.81685 11.5192 4.81685C11.9011 4.81685 12.2673 4.66513 12.5374 4.39508C12.8074 4.12503 12.9592 3.75876 12.9592 3.37685V2.89685H18.7192C19.2284 2.89685 19.7167 3.09913 20.0768 3.4592C20.4369 3.81927 20.6392 4.30763 20.6392 4.81685C20.6392 5.32606 20.4369 5.81442 20.0768 6.17449C19.7167 6.53456 19.2284 6.73685 18.7192 6.73685H5.27915C4.76994 6.73685 4.28158 6.53456 3.92151 6.17449C3.56144 5.81442 3.35915 5.32606 3.35915 4.81685C3.35915 4.30763 3.56144 3.81927 3.92151 3.4592C4.28158 3.09913 4.76994 2.89685 5.27915 2.89685ZM18.7192 20.1768H5.27915C4.76994 20.1768 4.28158 19.9746 3.92151 19.6145C3.56144 19.2544 3.35915 18.7661 3.35915 18.2568C3.35915 17.7476 3.56144 17.2593 3.92151 16.8992C4.28158 16.5391 4.76994 16.3368 5.27915 16.3368V16.8168C5.27915 17.1988 5.43087 17.565 5.70092 17.8351C5.97097 18.1051 6.33724 18.2568 6.71915 18.2568C7.10107 18.2568 7.46734 18.1051 7.73739 17.8351C8.00744 17.565 8.15915 17.1988 8.15915 16.8168V16.3368H10.0792V16.8168C10.0792 17.1988 10.2309 17.565 10.5009 17.8351C10.771 18.1051 11.1372 18.2568 11.5192 18.2568C11.9011 18.2568 12.2673 18.1051 12.5374 17.8351C12.8074 17.565 12.9592 17.1988 12.9592 16.8168V16.3368H18.7192C19.2284 16.3368 19.7167 16.5391 20.0768 16.8992C20.4369 17.2593 20.6392 17.7476 20.6392 18.2568C20.6392 18.7661 20.4369 19.2544 20.0768 19.6145C19.7167 19.9746 19.2284 20.1768 18.7192 20.1768Z" fill="#3C004F"/>
</symbol>


</svg>
