<svg width="2123" height="401" viewBox="0 0 2123 401" fill="none" xmlns="http://www.w3.org/2000/svg">
<path d="M550.616 306.707C592.232 306.707 618.531 285.61 618.531 250.063C618.531 175.79 520.56 199.777 520.56 152.67C520.56 135.619 534.143 125.793 555.818 125.793C573.736 125.793 586.741 132.729 598.59 146.601L617.086 128.105C603.792 111.632 582.695 100.361 556.396 100.361C520.56 100.361 493.394 120.591 493.394 154.404C493.394 226.076 591.076 200.355 591.076 252.086C591.076 270.293 575.181 281.275 551.483 281.275C527.207 281.275 511.601 272.027 498.885 254.398L480.389 272.894C497.44 294.858 518.826 306.707 550.616 306.707Z" fill="#1D0325"/>
<path d="M651.22 361.328H680.12L706.13 304.973L770.288 166.542H741.388L699.483 263.935L659.89 166.542H630.99L685.033 291.968L651.22 361.328Z" fill="#1D0325"/>
<path d="M832.45 306.707C863.373 306.707 883.025 290.523 883.025 264.802C883.025 213.649 809.619 229.255 809.619 202.089C809.619 193.13 817.711 187.35 832.739 187.35C847.189 187.35 858.46 192.841 866.263 202.956L883.025 186.194C872.043 171.455 854.992 163.652 833.606 163.652C803.261 163.652 784.476 179.258 784.476 204.112C784.476 254.109 858.171 237.058 858.171 267.114C858.171 277.229 848.923 283.009 832.739 283.009C816.555 283.009 803.261 277.229 793.435 264.802L776.673 281.564C789.389 297.459 809.33 306.707 832.45 306.707Z" fill="#1D0325"/>
<path d="M916.768 303.817H943.934V162.785L1004.91 262.779H1023.99L1084.68 162.785V303.817H1111.84V103.251H1092.77L1014.45 232.434L935.842 103.251H916.768V303.817Z" fill="#1D0325"/>
<path d="M1218.16 306.707C1239.83 306.707 1259.48 298.326 1272.78 283.009L1256.02 265.958C1247.06 276.94 1233.47 282.142 1218.16 282.142C1193.59 282.142 1176.25 267.692 1172.21 244.861H1279.71C1280.87 239.37 1281.16 235.035 1281.16 230.989C1281.16 191.974 1253.99 163.652 1216.42 163.652C1176.54 163.652 1145.62 194.864 1145.62 235.035C1145.62 276.073 1176.83 306.707 1218.16 306.707ZM1215.84 187.639C1238.39 187.639 1252.84 200.933 1255.73 223.186H1172.21C1176.25 201.511 1192.72 187.639 1215.84 187.639Z" fill="#1D0325"/>
<path d="M1372.23 306.707C1393.33 306.707 1412.4 298.326 1425.12 283.587L1408.07 266.247C1399.4 276.362 1386.97 281.564 1372.23 281.564C1346.22 281.564 1327.44 262.201 1327.44 235.035C1327.44 207.869 1346.22 188.795 1372.23 188.795C1386.68 188.795 1399.11 193.997 1407.78 204.112L1425.12 186.772C1412.11 172.033 1393.33 163.652 1372.23 163.652C1331.77 163.652 1300.56 194.864 1300.56 235.035C1300.56 275.495 1331.77 306.707 1372.23 306.707Z" fill="#1D0325"/>
<path d="M1450.91 303.817H1476.92V223.764C1476.92 202.956 1491.95 187.928 1512.76 187.928C1533.57 187.928 1548.02 202.667 1548.02 223.764V303.817H1574.03V218.562C1574.03 186.483 1551.49 163.652 1520.27 163.652C1502.07 163.652 1486.75 171.455 1476.92 184.46V97.4709H1450.91V303.817Z" fill="#1D0325"/>
<path d="M1667.62 306.707C1687.27 306.707 1703.46 298.615 1713.28 285.321V303.817H1739.29V166.542H1713.28V185.327C1703.46 171.744 1686.98 163.652 1667.62 163.652C1629.76 163.652 1600.57 195.153 1600.57 235.324C1600.57 275.495 1629.76 306.707 1667.62 306.707ZM1671.96 282.142C1645.95 282.142 1627.45 262.49 1627.45 235.035C1627.45 207.58 1645.66 188.217 1671.67 188.217C1697.68 188.217 1715.02 207.291 1715.02 235.324C1715.02 263.068 1697.68 282.142 1671.96 282.142Z" fill="#1D0325"/>
<path d="M1777.45 303.817H1803.46V223.764C1803.46 202.956 1818.49 187.928 1839.3 187.928C1860.1 187.928 1874.55 202.667 1874.55 223.764V303.817H1900.56V218.562C1900.56 189.951 1878.31 163.652 1846.81 163.652C1828.6 163.652 1813.29 171.455 1803.46 184.46V166.542H1777.45V303.817Z" fill="#1D0325"/>
<path d="M1949.07 139.087C1958.61 139.087 1965.55 131.862 1965.55 122.325C1965.55 113.077 1958.61 105.852 1949.07 105.852C1939.54 105.852 1932.6 113.077 1932.6 122.325C1932.6 131.862 1939.54 139.087 1949.07 139.087ZM1936.07 303.817H1962.08V166.542H1936.07V303.817Z" fill="#1D0325"/>
<path d="M1986.25 303.817H2016.88L2053.87 252.086L2090.58 303.817H2122.08L2070.64 233.012L2119.48 166.542H2089.13L2055.32 214.516L2020.35 166.542H1988.85L2038.56 233.301L1986.25 303.817Z" fill="#1D0325"/>
<circle cx="200.389" cy="200.644" r="200" fill="#3C004F"/>
<mask id="mask0_101_2" style="mask-type:alpha" maskUnits="userSpaceOnUse" x="0" y="0" width="401" height="401">
<circle cx="200.389" cy="200.644" r="200" fill="#3C004F"/>
</mask>
<g mask="url(#mask0_101_2)">
<rect x="242.814" y="157.651" width="80" height="355.003" rx="40" transform="rotate(45 242.814 157.651)" fill="url(#paint0_linear_101_2)"/>
<rect x="368.221" y="-60.6645" width="53" height="350.348" rx="26.5" transform="rotate(45 368.221 -60.6645)" stroke="url(#paint1_linear_101_2)" stroke-width="27"/>
</g>
<defs>
<linearGradient id="paint0_linear_101_2" x1="282.814" y1="157.651" x2="282.814" y2="512.653" gradientUnits="userSpaceOnUse">
<stop offset="0.353346" stop-color="#1EF99F"/>
<stop offset="0.722414" stop-color="white" stop-opacity="0"/>
</linearGradient>
<linearGradient id="paint1_linear_101_2" x1="408.221" y1="-79.7564" x2="408.221" y2="297.591" gradientUnits="userSpaceOnUse">
<stop offset="0.320343" stop-color="white" stop-opacity="0"/>
<stop offset="0.703443" stop-color="#1EF99F"/>
</linearGradient>
</defs>
</svg>
