<svg width="61" height="61" viewBox="0 0 61 61" fill="none" xmlns="http://www.w3.org/2000/svg">
<path d="M60.3862 30.2951C60.3862 46.8671 46.9552 60.2951 30.3862 60.2951C13.8172 60.2951 0.38623 46.8671 0.38623 30.2951C0.38623 13.7291 13.8172 0.295105 30.3862 0.295105C46.9552 0.295105 60.3862 13.7291 60.3862 30.2951Z" fill="#1EF99F"/>
<path d="M41.1075 41.7386C40.7145 41.7386 40.3185 41.6366 39.9555 41.4236L28.1775 34.3976C27.4995 33.9896 27.0825 33.2546 27.0825 32.4626V17.3216C27.0825 16.0796 28.0905 15.0716 29.3325 15.0716C30.5745 15.0716 31.5825 16.0796 31.5825 17.3216V31.1846L42.2625 37.5536C43.3275 38.1926 43.6785 39.5726 43.0425 40.6406C42.6195 41.3456 41.8725 41.7386 41.1075 41.7386Z" fill="#3C004F"/>
</svg>
