<svg width="73" height="73" viewBox="0 0 73 73" fill="none" xmlns="http://www.w3.org/2000/svg">
<path d="M36.2484 43.7691C25.8984 43.7691 17.1655 45.4603 17.1655 51.9876C17.1655 58.5175 25.9548 60.1493 36.2484 60.1493C46.5983 60.1493 55.3312 58.4581 55.3312 51.9308C55.3312 45.4009 46.5419 43.7691 36.2484 43.7691Z" fill="#3C004F"/>
<path d="M36.2485 37.5504C43.2568 37.5504 48.8763 31.8985 48.8763 24.8498C48.8763 17.7985 43.2568 12.1493 36.2485 12.1493C29.2402 12.1493 23.6206 17.7985 23.6206 24.8498C23.6206 31.8985 29.2402 37.5504 36.2485 37.5504Z" fill="#1EF99F"/>
<path d="M63.6651 27.8071C65.4783 20.6747 60.1623 14.269 53.393 14.269C52.657 14.269 51.9532 14.3501 51.2655 14.4879C51.1742 14.5095 51.0721 14.5554 51.0184 14.6365C50.9566 14.7391 51.0023 14.8769 51.0694 14.9661C53.1029 17.8352 54.2714 21.3285 54.2714 25.0784C54.2714 28.6716 53.1996 32.0217 51.3193 34.8017C51.1259 35.0881 51.2978 35.4744 51.6389 35.5339C52.1117 35.6176 52.5952 35.6609 53.0895 35.6744C58.0187 35.804 62.4429 32.6134 63.6651 27.8071Z" fill="#1EF99F"/>
<path d="M68.8291 44.6001C67.9265 42.6657 65.748 41.3392 62.4359 40.6881C60.8726 40.3045 56.6418 39.7641 52.7065 39.8371C52.6474 39.8452 52.6152 39.8857 52.6098 39.9127C52.6017 39.9505 52.6178 40.0154 52.6957 40.0559C54.5143 40.961 61.5441 44.8973 60.6603 53.1995C60.6227 53.5588 60.9102 53.8695 61.2674 53.8155C62.9973 53.5669 67.4484 52.6051 68.8291 49.609C69.592 48.0258 69.592 46.186 68.8291 44.6001Z" fill="#3C004F"/>
<path d="M21.5356 14.4887C20.8506 14.3482 20.1442 14.2698 19.4081 14.2698C12.6389 14.2698 7.32289 20.6755 9.13877 27.8079C10.3583 32.6142 14.7825 35.8048 19.7117 35.6752C20.2059 35.6616 20.6921 35.6157 21.1622 35.5347C21.5034 35.4752 21.6753 35.0889 21.4819 34.8025C19.6015 32.0198 18.5297 28.6724 18.5297 25.0792C18.5297 21.3266 19.7009 17.8333 21.7344 14.9669C21.7989 14.8777 21.8472 14.7399 21.7827 14.6373C21.729 14.5535 21.6296 14.5103 21.5356 14.4887Z" fill="#1EF99F"/>
<path d="M10.366 40.6873C7.05394 41.3384 4.87811 42.6649 3.97554 44.5993C3.20997 46.1852 3.20997 48.025 3.97554 49.6109C5.35626 52.6043 9.8073 53.5688 11.5372 53.8147C11.8945 53.8687 12.1792 53.5607 12.1416 53.1987C11.2579 44.8992 18.2877 40.9628 20.1089 40.0578C20.1841 40.0146 20.2002 39.9524 20.1922 39.9119C20.1868 39.8849 20.1573 39.8443 20.0982 39.8389C16.1602 39.7633 11.9321 40.3036 10.366 40.6873Z" fill="#3C004F"/>
</svg>
